<svg viewBox="0 0 1200 566" xmlns="http://www.w3.org/2000/svg">
  <defs>
    <linearGradient id="bgGrad2" x1="0%" y1="0%" x2="100%" y2="100%">
      <stop offset="0%" stop-color="#06120f"/>
      <stop offset="55%" stop-color="#071a16"/>
      <stop offset="100%" stop-color="#06120f"/>
    </linearGradient>
    <clipPath id="clipAll"><rect x="0" y="0" width="1200" height="566"/></clipPath>
  </defs>
  <rect width="1200" height="566" fill="url(#bgGrad2)"/>
  <g clip-path="url(#clipAll)">
    
  <g opacity="0">
    <animate attributeName="opacity" from="0" to="1" dur="0.6s" begin="0.0s" fill="freeze"/>
    <rect x="48" y="50" width="4" height="30" rx="2" fill="#60a5fa"/>
    <text x="68" y="70" font-family="Fira Code, monospace" font-size="17" fill="#e5e7eb">final-year AI/ML student, still figuring out how attention actually works</text>
  </g>
  <g opacity="0">
    <animate attributeName="opacity" from="0" to="1" dur="0.6s" begin="0.15s" fill="freeze"/>
    <rect x="48" y="104" width="4" height="30" rx="2" fill="#34d399"/>
    <text x="68" y="124" font-family="Fira Code, monospace" font-size="17" fill="#e5e7eb">deep into LLMs, RAG pipelines, and multi-agent systems</text>
  </g>
  <g opacity="0">
    <animate attributeName="opacity" from="0" to="1" dur="0.6s" begin="0.3s" fill="freeze"/>
    <rect x="48" y="158" width="4" height="30" rx="2" fill="#4ade80"/>
    <text x="68" y="178" font-family="Fira Code, monospace" font-size="17" fill="#e5e7eb">I'd rather understand one paper properly than skim ten tutorials</text>
  </g>
  <g opacity="0">
    <animate attributeName="opacity" from="0" to="1" dur="0.6s" begin="0.45s" fill="freeze"/>
    <rect x="48" y="212" width="4" height="30" rx="2" fill="#facc15"/>
    <text x="68" y="232" font-family="Fira Code, monospace" font-size="17" fill="#e5e7eb">currently pulling transformer architecture apart piece by piece</text>
  </g>
    <line x1="48" y1="312" x2="1152" y2="312" stroke="#1f2937" stroke-width="1"/>
    <g transform="translate(48,338)">
      <animateTransform attributeName="transform" type="translate" from="48,338" to="-2224,338" dur="50.5s" repeatCount="indefinite"/>
      
  <g>
    <rect x="0" y="0" width="128" height="86" rx="13" fill="#60a5fa" fill-opacity="0.09" stroke="#60a5fa" stroke-opacity="0.4" stroke-width="1"/>
    <g transform="translate(45.0,12.0) scale(1.5833)"><path d="M14.25.18l.9.2.73.26.59.3.45.32.34.34.25.34.16.33.1.3.04.26.02.2-.01.13V8.5l-.05.63-.13.55-.21.46-.26.38-.3.31-.33.25-.35.19-.35.14-.33.1-.3.07-.26.04-.21.02H8.77l-.69.05-.59.14-.5.22-.41.27-.33.32-.27.35-.2.36-.15.37-.1.35-.07.32-.04.27-.02.21v3.06H3.17l-.21-.03-.28-.07-.32-.12-.35-.18-.36-.26-.36-.36-.35-.46-.32-.59-.28-.73-.21-.88-.14-1.05-.05-1.23.06-1.22.16-1.04.24-.87.32-.71.36-.57.4-.44.42-.33.42-.24.4-.16.36-.1.32-.05.24-.01h.16l.06.01h8.16v-.83H6.18l-.01-2.75-.02-.37.05-.34.11-.31.17-.28.25-.26.31-.23.38-.2.44-.18.51-.15.58-.12.64-.1.71-.06.77-.04.84-.02 1.27.05zm-6.3 1.98l-.23.33-.08.41.08.41.23.34.33.22.41.09.41-.09.33-.22.23-.34.08-.41-.08-.41-.23-.33-.33-.22-.41-.09-.41.09zm13.09 3.95l.28.06.32.12.35.18.36.27.36.35.35.47.32.59.28.73.21.88.14 1.04.05 1.23-.06 1.23-.16 1.04-.24.86-.32.71-.36.57-.4.45-.42.33-.42.24-.4.16-.36.09-.32.05-.24.02-.16-.01h-8.22v.82h5.84l.01 2.76.02.36-.05.34-.11.31-.17.29-.25.25-.31.24-.38.2-.44.17-.51.15-.58.13-.64.09-.71.07-.77.04-.84.01-1.27-.04-1.07-.14-.9-.2-.73-.25-.59-.3-.45-.33-.34-.34-.25-.34-.16-.33-.1-.3-.04-.25-.02-.2.01-.13v-5.34l.05-.64.13-.54.21-.46.26-.38.3-.32.33-.24.35-.2.35-.14.33-.1.3-.06.26-.04.21-.02.13-.01h5.84l.69-.05.59-.14.5-.21.41-.28.33-.32.27-.35.2-.36.15-.36.1-.35.07-.32.04-.28.02-.21V6.07h2.09l.14.01zm-6.47 14.25l-.23.33-.08.41.08.41.23.33.33.23.41.08.41-.08.33-.23.23-.33.08-.41-.08-.41-.23-.33-.33-.23-.41-.08-.41.08z" fill="#3776AB"/></g>
    <text x="64.0" y="73" text-anchor="middle" font-family="Fira Code, monospace" font-size="11" font-weight="600" fill="#60a5fa">Python</text>
  </g>
  <g>
    <rect x="142" y="0" width="128" height="86" rx="13" fill="#60a5fa" fill-opacity="0.09" stroke="#60a5fa" stroke-opacity="0.4" stroke-width="1"/>
    <path d="M 198.0 25.0 Q 198.0 41.0 208.0 41.0 Q 217.0 41.0 217.0 33.0 Q 210.0 37.0 204.0 33.0" fill="none" stroke="#60a5fa" stroke-width="2.2" stroke-linecap="round"/><line x1="204.0" y1="19.0" x2="206.0" y2="23.0" stroke="#60a5fa" stroke-width="1.8" stroke-linecap="round"/><line x1="209.0" y1="18.0" x2="210.0" y2="22.0" stroke="#60a5fa" stroke-width="1.8" stroke-linecap="round"/>
    <text x="206.0" y="73" text-anchor="middle" font-family="Fira Code, monospace" font-size="11" font-weight="600" fill="#60a5fa">Java</text>
  </g>
  <g>
    <rect x="284" y="0" width="128" height="86" rx="13" fill="#60a5fa" fill-opacity="0.09" stroke="#60a5fa" stroke-opacity="0.4" stroke-width="1"/>
    <g transform="translate(329.0,12.0) scale(1.5833)"><path d="M12 2.746c-6.627 0-12 3.599-12 8.037 0 3.897 4.144 7.144 9.64 7.88V16.26c-2.924-.915-4.925-2.755-4.925-4.877 0-3.035 4.084-5.494 9.12-5.494 5.038 0 8.757 1.683 8.757 5.494 0 1.976-.999 3.379-2.662 4.272.09.066.174.128.258.216.169.149.25.363.372.544 2.128-1.45 3.44-3.437 3.44-5.631 0-4.44-5.373-8.038-12-8.038zm-2.111 4.99v13.516l4.093-.002-.002-5.291h1.1c.225 0 .321.066.549.25.272.22.715.982.715.982l2.164 4.063 4.627-.002-2.864-4.826s-.086-.193-.265-.383a2.22 2.22 0 00-.582-.416c-.422-.214-1.149-.434-1.149-.434s3.578-.264 3.578-3.826c0-3.562-3.744-3.63-3.744-3.63zm4.127 2.93l2.478.002s1.149-.062 1.149 1.127c0 1.165-1.149 1.17-1.149 1.17h-2.478zm1.754 6.119c-.494.049-1.012.079-1.54.088v1.807a16.622 16.622 0 002.37-.473l-.471-.891s-.108-.183-.248-.394c-.039-.054-.08-.098-.111-.137z" fill="#276DC3"/></g>
    <text x="348.0" y="73" text-anchor="middle" font-family="Fira Code, monospace" font-size="11" font-weight="600" fill="#60a5fa">R</text>
  </g>
  <g>
    <rect x="426" y="0" width="128" height="86" rx="13" fill="#38bdf8" fill-opacity="0.09" stroke="#38bdf8" stroke-opacity="0.4" stroke-width="1"/>
    <g transform="translate(471.0,12.0) scale(1.5833)"><path d="M12.005 0L4.952 7.053a9.865 9.865 0 000 14.022 9.866 9.866 0 0014.022 0c3.984-3.9 3.986-10.205.085-14.023l-1.744 1.743c2.904 2.905 2.904 7.634 0 10.538s-7.634 2.904-10.538 0-2.904-7.634 0-10.538l4.647-4.646.582-.665zm3.568 3.899a1.327 1.327 0 00-1.327 1.327 1.327 1.327 0 001.327 1.328A1.327 1.327 0 0016.9 5.226 1.327 1.327 0 0015.573 3.9z" fill="#EE4C2C"/></g>
    <text x="490.0" y="73" text-anchor="middle" font-family="Fira Code, monospace" font-size="11" font-weight="600" fill="#38bdf8">PyTorch</text>
  </g>
  <g>
    <rect x="568" y="0" width="128" height="86" rx="13" fill="#38bdf8" fill-opacity="0.09" stroke="#38bdf8" stroke-opacity="0.4" stroke-width="1"/>
    <g transform="translate(613.0,12.0) scale(1.5833)"><path d="M1.292 5.856L11.54 0v24l-4.095-2.378V7.603l-6.168 3.564.015-5.31zm21.43 5.311l-.014-5.31L12.46 0v24l4.095-2.378V14.87l3.092 1.788-.018-4.618-3.074-1.756V7.603l6.168 3.564z" fill="#FF6F00"/></g>
    <text x="632.0" y="73" text-anchor="middle" font-family="Fira Code, monospace" font-size="11" font-weight="600" fill="#38bdf8">TensorFlow</text>
  </g>
  <g>
    <rect x="710" y="0" width="128" height="86" rx="13" fill="#38bdf8" fill-opacity="0.09" stroke="#38bdf8" stroke-opacity="0.4" stroke-width="1"/>
    <g transform="translate(755.0,12.0) scale(1.5833)"><path d="M15.601 5.53c-1.91.035-3.981.91-5.63 2.56-2.93 2.93-2.083 8.53-1.088 9.525.805.804 6.595 1.843 9.526-1.088a9.74 9.74 0 0 0 .584-.643c.043-.292.205-.66.489-1.106a1.848 1.848 0 0 1-.537.176c-.144.265-.37.55-.676.855-.354.335-.607.554-.76.656a.795.795 0 0 1-.437.152c-.35 0-.514-.308-.494-.924-.22.316-.425.549-.612.7a.914.914 0 0 1-.578.224c-.194 0-.36-.09-.496-.273a1.03 1.03 0 0 1-.193-.507 4.016 4.016 0 0 1-.726.583c-.224.132-.47.197-.74.197-.3 0-.543-.096-.727-.288a.978.978 0 0 1-.257-.524v.004c-.3.276-.564.48-.79.611a1.295 1.295 0 0 1-.649.197.693.693 0 0 1-.571-.275c-.145-.183-.218-.43-.218-.739 0-.464.101-1.02.302-1.67.201-.65.445-1.25.733-1.797l.842-.312a.21.21 0 0 1 .06-.013c.063 0 .116.047.157.14.04.095.061.221.061.38 0 .451-.104.888-.312 1.31-.207.422-.532.873-.974 1.352-.018.23-.027.388-.027.474 0 .193.036.345.106.458.071.113.165.169.282.169a.71.71 0 0 0 .382-.13c.132-.084.333-.26.602-.523.028-.418.187-.798.482-1.142.324-.38.685-.569 1.08-.569.206 0 .37.054.494.16a.524.524 0 0 1 .186.417c0 .458-.486.829-1.459 1.114.088.43.32.646.693.646a.807.807 0 0 0 .417-.117c.129-.076.321-.243.575-.497.032-.252.118-.495.259-.728.182-.3.416-.544.701-.73.285-.185.537-.278.756-.278.276 0 .47.127.58.381l.677-.374h.186l-.292.971c-.15.488-.226.823-.226 1.004 0 .19.067.285.202.285.086 0 .181-.045.285-.137.104-.092.25-.232.437-.42v.001c.143-.155.274-.32.392-.494-.19-.084-.285-.21-.285-.375 0-.17.058-.352.174-.545.116-.194.275-.29.479-.29.172 0 .258.088.258.265 0 .139-.05.338-.149.596.367-.04.687-.32.961-.842l.228-.01c1.059-2.438.828-5.075-.83-6.732-1.019-1.02-2.408-1.5-3.895-1.471zm4.725 8.203a8.938 8.938 0 0 1-1.333 2.151 1.09 1.09 0 0 0-.012.147c0 .168.047.309.14.423.092.113.206.17.34.17.296 0 .714-.264 1.254-.787-.001.04-.003.08-.003.121 0 .146.012.368.036.666l.733-.172c0-.2.003-.357.01-.474.01-.157.033-.33.066-.517.02-.11.07-.216.152-.315l.186-.216a5.276 5.276 0 0 1 .378-.397c.062-.055.116-.099.162-.13a.26.26 0 0 1 .123-.046c.055 0 .083.035.083.106 0 .07-.052.236-.156.497-.194.486-.292.848-.292 1.084 0 .175.046.314.136.418a.45.45 0 0 0 .358.155c.365 0 .803-.269 1.313-.808v-.381c-.361.426-.623.64-.784.64-.109 0-.163-.067-.163-.2 0-.1.065-.316.195-.65.19-.486.285-.836.285-1.048a.464.464 0 0 0-.112-.319.36.36 0 0 0-.282-.127c-.165 0-.354.077-.567.233-.213.156-.5.436-.863.84.053-.262.165-.622.335-1.08l-.809.156a6.54 6.54 0 0 0-.399 1.074c-.04.156-.07.316-.092.48a7.447 7.447 0 0 1-.49.45.38.38 0 0 1-.229.08.208.208 0 0 1-.174-.082.352.352 0 0 1-.064-.222c0-.1.019-.214.056-.343.038-.13.12-.373.249-.731l.308-.849zm-17.21-2.927c-.863-.016-1.67.263-2.261.854-1.352 1.352-1.07 3.827.631 5.527 1.7 1.701 4.95 1.21 5.527.632.467-.466 1.07-3.827-.631-5.527-.957-.957-2.158-1.465-3.267-1.486zm12.285.358h.166v.21H15.4zm.427 0h.166v.865l.46-.455h.195l-.364.362.428.684h-.198l-.357-.575-.164.166v.41h-.166zm1.016 0h.166v.21h-.166zm.481.122h.166v.288h.172v.135h-.172v.717c0 .037.006.062.02.075.012.013.037.02.074.02a.23.23 0 0 0 .078-.01v.141a.802.802 0 0 1-.136.014.23.23 0 0 1-.15-.043.15.15 0 0 1-.052-.123v-.79h-.141v-.136h.141zm-3.562.258c.081 0 .15.012.207.038.057.024.1.061.13.11s.045.106.045.173h-.176c-.006-.111-.075-.167-.208-.167a.285.285 0 0 0-.164.041.134.134 0 0 0-.06.117c0 .035.015.065.045.088.03.024.08.044.15.06l.16.039a.47.47 0 0 1 .224.105c.047.046.07.108.07.186a.3.3 0 0 1-.052.175.327.327 0 0 1-.152.116.585.585 0 0 1-.226.041c-.136 0-.24-.03-.309-.088-.069-.059-.105-.149-.109-.269h.176c.004.037.01.065.017.084a.166.166 0 0 0 .034.054c.044.043.112.065.204.065a.31.31 0 0 0 .177-.045.139.139 0 0 0 .067-.119.116.116 0 0 0-.038-.09.287.287 0 0 0-.124-.055l-.156-.038a1.248 1.248 0 0 1-.159-.05.359.359 0 0 1-.098-.061.22.22 0 0 1-.058-.083.32.32 0 0 1-.016-.108c0-.096.036-.174.109-.232a.45.45 0 0 1 .29-.087zm1.035 0a.46.46 0 0 1 .202.043.351.351 0 0 1 .187.212.577.577 0 0 1 .023.126h-.168a.256.256 0 0 0-.078-.168.242.242 0 0 0-.17-.06.248.248 0 0 0-.155.05.306.306 0 0 0-.1.144.662.662 0 0 0-.034.224.58.58 0 0 0 .035.214.299.299 0 0 0 .101.135.261.261 0 0 0 .157.048c.142 0 .227-.084.256-.252h.167a.519.519 0 0 1-.065.22.35.35 0 0 1-.146.138.464.464 0 0 1-.216.048.448.448 0 0 1-.246-.066.441.441 0 0 1-.161-.192.703.703 0 0 1-.057-.293c0-.085.01-.163.032-.233a.522.522 0 0 1 .095-.182.403.403 0 0 1 .15-.117.453.453 0 0 1 .191-.04zm.603.03h.166v1.046H15.4zm1.443 0h.166v1.046h-.166zm-5.05.618c-.08 0-.2.204-.356.611-.155.407-.308.977-.459 1.71.281-.312.509-.662.683-1.05.175-.387.262-.72.262-.999a.455.455 0 0 0-.036-.197c-.025-.05-.056-.075-.093-.075zm4.662 1.797c-.221 0-.431.188-.629.563-.197.376-.296.722-.296 1.038 0 .12.029.216.088.29a.273.273 0 0 0 .223.111c.221 0 .43-.188.625-.565.196-.377.294-.725.294-1.043a.457.457 0 0 0-.083-.29.269.269 0 0 0-.222-.104zm-2.848.007c-.146 0-.285.11-.417.333-.133.222-.2.51-.2.866.566-.159.849-.452.849-.881 0-.212-.077-.318-.232-.318Z" fill="#F7931E"/></g>
    <text x="774.0" y="73" text-anchor="middle" font-family="Fira Code, monospace" font-size="9.8" font-weight="600" fill="#38bdf8">scikit-learn</text>
  </g>
  <g>
    <rect x="852" y="0" width="128" height="86" rx="13" fill="#38bdf8" fill-opacity="0.09" stroke="#38bdf8" stroke-opacity="0.4" stroke-width="1"/>
    <g transform="translate(897.0,12.0) scale(1.5833)"><path d="M16.922 0h2.623v18.104h-2.623zm-4.126 12.94h2.623v2.57h-2.623zm0-7.037h2.623v5.446h-2.623zm0 11.197h2.623v5.446h-2.623zM4.456 5.896h2.622V24H4.455zm4.213 2.559h2.623v2.57H8.67zm0 4.151h2.623v5.447H8.67zm0-11.187h2.623v5.446H8.67Z" fill="#150458"/></g>
    <text x="916.0" y="73" text-anchor="middle" font-family="Fira Code, monospace" font-size="11" font-weight="600" fill="#38bdf8">Pandas</text>
  </g>
  <g>
    <rect x="994" y="0" width="128" height="86" rx="13" fill="#38bdf8" fill-opacity="0.09" stroke="#38bdf8" stroke-opacity="0.4" stroke-width="1"/>
    <g transform="translate(1039.0,12.0) scale(1.5833)"><path d="M10.315 4.876L6.3048 2.8517l-4.401 2.1965 4.1186 2.0683zm1.8381.9277l4.2045 2.1223-4.3622 2.1906-4.125-2.0718zm5.6153-2.9213l4.3193 2.1658-3.863 1.9402-4.2131-2.1252zm-1.859-.9329L12.021 0 8.1742 1.9193l4.0068 2.0208zm-3.0401 16.7443V24l4.7107-2.3507-.0053-5.3085zm4.7037-4.2057l-.0052-5.2528-4.6985 2.3356v5.2546zm5.6553-.9845v5.327l-4.0178 2.0052-.0029-5.3028zm0-1.8626V6.4214l-4.0253 2.001.0034 5.2633zM11.2062 11.571L8.0333 9.9756v6.895s-3.8804-8.2564-4.2399-8.998c-.0463-.0957-.2371-.2007-.2858-.2262C2.8118 7.2812.773 6.2485.773 6.2485V18.43l2.8204 1.5076v-6.3674s3.8392 7.3775 3.878 7.458c.0389.0807.4245.8582.8362 1.1314.5485.363 2.8992 1.7766 2.8992 1.7766z" fill="#013243"/></g>
    <text x="1058.0" y="73" text-anchor="middle" font-family="Fira Code, monospace" font-size="11" font-weight="600" fill="#38bdf8">NumPy</text>
  </g>
  <g>
    <rect x="1136" y="0" width="128" height="86" rx="13" fill="#34d399" fill-opacity="0.09" stroke="#34d399" stroke-opacity="0.4" stroke-width="1"/>
    <circle cx="1194.0" cy="31.0" r="6.5" fill="none" stroke="#34d399" stroke-width="2.3"/><circle cx="1206.0" cy="31.0" r="6.5" fill="none" stroke="#34d399" stroke-width="2.3"/>
    <text x="1200.0" y="73" text-anchor="middle" font-family="Fira Code, monospace" font-size="11" font-weight="600" fill="#34d399">LangChain</text>
  </g>
  <g>
    <rect x="1278" y="0" width="128" height="86" rx="13" fill="#34d399" fill-opacity="0.09" stroke="#34d399" stroke-opacity="0.4" stroke-width="1"/>
    <path d="M 1346.0 17.0 L 1334.0 33.0 L 1341.0 33.0 L 1338.0 45.0 L 1351.0 27.0 L 1344.0 27.0 Z" fill="#34d399"/>
    <text x="1342.0" y="73" text-anchor="middle" font-family="Fira Code, monospace" font-size="11" font-weight="600" fill="#34d399">Groq API</text>
  </g>
  <g>
    <rect x="1420" y="0" width="128" height="86" rx="13" fill="#34d399" fill-opacity="0.09" stroke="#34d399" stroke-opacity="0.4" stroke-width="1"/>
    <circle cx="1481.0" cy="28.0" r="9" fill="none" stroke="#34d399" stroke-width="2.5"/><line x1="1487.0" y1="34.0" x2="1494.0" y2="41.0" stroke="#34d399" stroke-width="2.5" stroke-linecap="round"/>
    <text x="1484.0" y="73" text-anchor="middle" font-family="Fira Code, monospace" font-size="11" font-weight="600" fill="#34d399">RAG</text>
  </g>
  <g>
    <rect x="1562" y="0" width="128" height="86" rx="13" fill="#34d399" fill-opacity="0.09" stroke="#34d399" stroke-opacity="0.4" stroke-width="1"/>
    <line x1="1616.0" y1="39.0" x2="1626.0" y2="21.0" stroke="#34d399" stroke-width="2"/><line x1="1626.0" y1="21.0" x2="1636.0" y2="39.0" stroke="#34d399" stroke-width="2"/><line x1="1616.0" y1="39.0" x2="1636.0" y2="39.0" stroke="#34d399" stroke-width="2"/><circle cx="1616.0" cy="39.0" r="3.5" fill="#34d399"/><circle cx="1626.0" cy="21.0" r="3.5" fill="#34d399"/><circle cx="1636.0" cy="39.0" r="3.5" fill="#34d399"/>
    <text x="1626.0" y="73" text-anchor="middle" font-family="Fira Code, monospace" font-size="11" font-weight="600" fill="#34d399">GraphRAG</text>
  </g>
  <g>
    <rect x="1704" y="0" width="128" height="86" rx="13" fill="#34d399" fill-opacity="0.09" stroke="#34d399" stroke-opacity="0.4" stroke-width="1"/>
    <path d="M 1768.0 19.0 L 1778.0 25.0 L 1778.0 37.0 L 1768.0 43.0 L 1758.0 37.0 L 1758.0 25.0 Z" fill="none" stroke="#34d399" stroke-width="2.2" stroke-linejoin="round"/><circle cx="1768.0" cy="31.0" r="3" fill="#34d399"/>
    <text x="1768.0" y="73" text-anchor="middle" font-family="Fira Code, monospace" font-size="11" font-weight="600" fill="#34d399">Qdrant</text>
  </g>
  <g>
    <rect x="1846" y="0" width="128" height="86" rx="13" fill="#34d399" fill-opacity="0.09" stroke="#34d399" stroke-opacity="0.4" stroke-width="1"/>
    <rect x="1899.0" y="20.5" width="22" height="5" rx="2.5" fill="#34d399" opacity="0.9"/><rect x="1902.5" y="28.5" width="15" height="5" rx="2.5" fill="#34d399" opacity="0.75"/><rect x="1905.5" y="36.5" width="9" height="5" rx="2.5" fill="#34d399" opacity="0.6000000000000001"/>
    <text x="1910.0" y="73" text-anchor="middle" font-family="Fira Code, monospace" font-size="8.2" font-weight="600" fill="#34d399">Sentence-Transformers</text>
  </g>
  <g>
    <rect x="1988" y="0" width="128" height="86" rx="13" fill="#34d399" fill-opacity="0.09" stroke="#34d399" stroke-opacity="0.4" stroke-width="1"/>
    <rect x="2039.0" y="21.0" width="26" height="17" rx="5" fill="none" stroke="#34d399" stroke-width="2.2"/><path d="M 2046.0 38.0 L 2042.0 44.0 L 2050.0 38.0 Z" fill="#34d399"/><line x1="2046.0" y1="29.0" x2="2058.0" y2="29.0" stroke="#34d399" stroke-width="2" stroke-linecap="round"/>
    <text x="2052.0" y="73" text-anchor="middle" font-family="Fira Code, monospace" font-size="9" font-weight="600" fill="#34d399">Prompt Engineering</text>
  </g>
  <g>
    <rect x="2130" y="0" width="128" height="86" rx="13" fill="#34d399" fill-opacity="0.09" stroke="#34d399" stroke-opacity="0.4" stroke-width="1"/>
    <path d="M 2185.0 25.0 A 10 10 0 1 1 2185.0 37.0" fill="none" stroke="#34d399" stroke-width="2.3" stroke-linecap="round"/><path d="M 2185.0 25.0 L 2181.0 25.0 M 2185.0 25.0 L 2185.0 21.0" stroke="#34d399" stroke-width="2.3" fill="none" stroke-linecap="round"/><circle cx="2203.0" cy="31.0" r="3" fill="#34d399"/>
    <text x="2194.0" y="73" text-anchor="middle" font-family="Fira Code, monospace" font-size="9.8" font-weight="600" fill="#34d399">Agent Workflows</text>
  </g>
  <g>
    <rect x="2272" y="0" width="128" height="86" rx="13" fill="#60a5fa" fill-opacity="0.09" stroke="#60a5fa" stroke-opacity="0.4" stroke-width="1"/>
    <g transform="translate(2317.0,12.0) scale(1.5833)"><path d="M14.25.18l.9.2.73.26.59.3.45.32.34.34.25.34.16.33.1.3.04.26.02.2-.01.13V8.5l-.05.63-.13.55-.21.46-.26.38-.3.31-.33.25-.35.19-.35.14-.33.1-.3.07-.26.04-.21.02H8.77l-.69.05-.59.14-.5.22-.41.27-.33.32-.27.35-.2.36-.15.37-.1.35-.07.32-.04.27-.02.21v3.06H3.17l-.21-.03-.28-.07-.32-.12-.35-.18-.36-.26-.36-.36-.35-.46-.32-.59-.28-.73-.21-.88-.14-1.05-.05-1.23.06-1.22.16-1.04.24-.87.32-.71.36-.57.4-.44.42-.33.42-.24.4-.16.36-.1.32-.05.24-.01h.16l.06.01h8.16v-.83H6.18l-.01-2.75-.02-.37.05-.34.11-.31.17-.28.25-.26.31-.23.38-.2.44-.18.51-.15.58-.12.64-.1.71-.06.77-.04.84-.02 1.27.05zm-6.3 1.98l-.23.33-.08.41.08.41.23.34.33.22.41.09.41-.09.33-.22.23-.34.08-.41-.08-.41-.23-.33-.33-.22-.41-.09-.41.09zm13.09 3.95l.28.06.32.12.35.18.36.27.36.35.35.47.32.59.28.73.21.88.14 1.04.05 1.23-.06 1.23-.16 1.04-.24.86-.32.71-.36.57-.4.45-.42.33-.42.24-.4.16-.36.09-.32.05-.24.02-.16-.01h-8.22v.82h5.84l.01 2.76.02.36-.05.34-.11.31-.17.29-.25.25-.31.24-.38.2-.44.17-.51.15-.58.13-.64.09-.71.07-.77.04-.84.01-1.27-.04-1.07-.14-.9-.2-.73-.25-.59-.3-.45-.33-.34-.34-.25-.34-.16-.33-.1-.3-.04-.25-.02-.2.01-.13v-5.34l.05-.64.13-.54.21-.46.26-.38.3-.32.33-.24.35-.2.35-.14.33-.1.3-.06.26-.04.21-.02.13-.01h5.84l.69-.05.59-.14.5-.21.41-.28.33-.32.27-.35.2-.36.15-.36.1-.35.07-.32.04-.28.02-.21V6.07h2.09l.14.01zm-6.47 14.25l-.23.33-.08.41.08.41.23.33.33.23.41.08.41-.08.33-.23.23-.33.08-.41-.08-.41-.23-.33-.33-.23-.41-.08-.41.08z" fill="#3776AB"/></g>
    <text x="2336.0" y="73" text-anchor="middle" font-family="Fira Code, monospace" font-size="11" font-weight="600" fill="#60a5fa">Python</text>
  </g>
  <g>
    <rect x="2414" y="0" width="128" height="86" rx="13" fill="#60a5fa" fill-opacity="0.09" stroke="#60a5fa" stroke-opacity="0.4" stroke-width="1"/>
    <path d="M 2470.0 25.0 Q 2470.0 41.0 2480.0 41.0 Q 2489.0 41.0 2489.0 33.0 Q 2482.0 37.0 2476.0 33.0" fill="none" stroke="#60a5fa" stroke-width="2.2" stroke-linecap="round"/><line x1="2476.0" y1="19.0" x2="2478.0" y2="23.0" stroke="#60a5fa" stroke-width="1.8" stroke-linecap="round"/><line x1="2481.0" y1="18.0" x2="2482.0" y2="22.0" stroke="#60a5fa" stroke-width="1.8" stroke-linecap="round"/>
    <text x="2478.0" y="73" text-anchor="middle" font-family="Fira Code, monospace" font-size="11" font-weight="600" fill="#60a5fa">Java</text>
  </g>
  <g>
    <rect x="2556" y="0" width="128" height="86" rx="13" fill="#60a5fa" fill-opacity="0.09" stroke="#60a5fa" stroke-opacity="0.4" stroke-width="1"/>
    <g transform="translate(2601.0,12.0) scale(1.5833)"><path d="M12 2.746c-6.627 0-12 3.599-12 8.037 0 3.897 4.144 7.144 9.64 7.88V16.26c-2.924-.915-4.925-2.755-4.925-4.877 0-3.035 4.084-5.494 9.12-5.494 5.038 0 8.757 1.683 8.757 5.494 0 1.976-.999 3.379-2.662 4.272.09.066.174.128.258.216.169.149.25.363.372.544 2.128-1.45 3.44-3.437 3.44-5.631 0-4.44-5.373-8.038-12-8.038zm-2.111 4.99v13.516l4.093-.002-.002-5.291h1.1c.225 0 .321.066.549.25.272.22.715.982.715.982l2.164 4.063 4.627-.002-2.864-4.826s-.086-.193-.265-.383a2.22 2.22 0 00-.582-.416c-.422-.214-1.149-.434-1.149-.434s3.578-.264 3.578-3.826c0-3.562-3.744-3.63-3.744-3.63zm4.127 2.93l2.478.002s1.149-.062 1.149 1.127c0 1.165-1.149 1.17-1.149 1.17h-2.478zm1.754 6.119c-.494.049-1.012.079-1.54.088v1.807a16.622 16.622 0 002.37-.473l-.471-.891s-.108-.183-.248-.394c-.039-.054-.08-.098-.111-.137z" fill="#276DC3"/></g>
    <text x="2620.0" y="73" text-anchor="middle" font-family="Fira Code, monospace" font-size="11" font-weight="600" fill="#60a5fa">R</text>
  </g>
  <g>
    <rect x="2698" y="0" width="128" height="86" rx="13" fill="#38bdf8" fill-opacity="0.09" stroke="#38bdf8" stroke-opacity="0.4" stroke-width="1"/>
    <g transform="translate(2743.0,12.0) scale(1.5833)"><path d="M12.005 0L4.952 7.053a9.865 9.865 0 000 14.022 9.866 9.866 0 0014.022 0c3.984-3.9 3.986-10.205.085-14.023l-1.744 1.743c2.904 2.905 2.904 7.634 0 10.538s-7.634 2.904-10.538 0-2.904-7.634 0-10.538l4.647-4.646.582-.665zm3.568 3.899a1.327 1.327 0 00-1.327 1.327 1.327 1.327 0 001.327 1.328A1.327 1.327 0 0016.9 5.226 1.327 1.327 0 0015.573 3.9z" fill="#EE4C2C"/></g>
    <text x="2762.0" y="73" text-anchor="middle" font-family="Fira Code, monospace" font-size="11" font-weight="600" fill="#38bdf8">PyTorch</text>
  </g>
  <g>
    <rect x="2840" y="0" width="128" height="86" rx="13" fill="#38bdf8" fill-opacity="0.09" stroke="#38bdf8" stroke-opacity="0.4" stroke-width="1"/>
    <g transform="translate(2885.0,12.0) scale(1.5833)"><path d="M1.292 5.856L11.54 0v24l-4.095-2.378V7.603l-6.168 3.564.015-5.31zm21.43 5.311l-.014-5.31L12.46 0v24l4.095-2.378V14.87l3.092 1.788-.018-4.618-3.074-1.756V7.603l6.168 3.564z" fill="#FF6F00"/></g>
    <text x="2904.0" y="73" text-anchor="middle" font-family="Fira Code, monospace" font-size="11" font-weight="600" fill="#38bdf8">TensorFlow</text>
  </g>
  <g>
    <rect x="2982" y="0" width="128" height="86" rx="13" fill="#38bdf8" fill-opacity="0.09" stroke="#38bdf8" stroke-opacity="0.4" stroke-width="1"/>
    <g transform="translate(3027.0,12.0) scale(1.5833)"><path d="M15.601 5.53c-1.91.035-3.981.91-5.63 2.56-2.93 2.93-2.083 8.53-1.088 9.525.805.804 6.595 1.843 9.526-1.088a9.74 9.74 0 0 0 .584-.643c.043-.292.205-.66.489-1.106a1.848 1.848 0 0 1-.537.176c-.144.265-.37.55-.676.855-.354.335-.607.554-.76.656a.795.795 0 0 1-.437.152c-.35 0-.514-.308-.494-.924-.22.316-.425.549-.612.7a.914.914 0 0 1-.578.224c-.194 0-.36-.09-.496-.273a1.03 1.03 0 0 1-.193-.507 4.016 4.016 0 0 1-.726.583c-.224.132-.47.197-.74.197-.3 0-.543-.096-.727-.288a.978.978 0 0 1-.257-.524v.004c-.3.276-.564.48-.79.611a1.295 1.295 0 0 1-.649.197.693.693 0 0 1-.571-.275c-.145-.183-.218-.43-.218-.739 0-.464.101-1.02.302-1.67.201-.65.445-1.25.733-1.797l.842-.312a.21.21 0 0 1 .06-.013c.063 0 .116.047.157.14.04.095.061.221.061.38 0 .451-.104.888-.312 1.31-.207.422-.532.873-.974 1.352-.018.23-.027.388-.027.474 0 .193.036.345.106.458.071.113.165.169.282.169a.71.71 0 0 0 .382-.13c.132-.084.333-.26.602-.523.028-.418.187-.798.482-1.142.324-.38.685-.569 1.08-.569.206 0 .37.054.494.16a.524.524 0 0 1 .186.417c0 .458-.486.829-1.459 1.114.088.43.32.646.693.646a.807.807 0 0 0 .417-.117c.129-.076.321-.243.575-.497.032-.252.118-.495.259-.728.182-.3.416-.544.701-.73.285-.185.537-.278.756-.278.276 0 .47.127.58.381l.677-.374h.186l-.292.971c-.15.488-.226.823-.226 1.004 0 .19.067.285.202.285.086 0 .181-.045.285-.137.104-.092.25-.232.437-.42v.001c.143-.155.274-.32.392-.494-.19-.084-.285-.21-.285-.375 0-.17.058-.352.174-.545.116-.194.275-.29.479-.29.172 0 .258.088.258.265 0 .139-.05.338-.149.596.367-.04.687-.32.961-.842l.228-.01c1.059-2.438.828-5.075-.83-6.732-1.019-1.02-2.408-1.5-3.895-1.471zm4.725 8.203a8.938 8.938 0 0 1-1.333 2.151 1.09 1.09 0 0 0-.012.147c0 .168.047.309.14.423.092.113.206.17.34.17.296 0 .714-.264 1.254-.787-.001.04-.003.08-.003.121 0 .146.012.368.036.666l.733-.172c0-.2.003-.357.01-.474.01-.157.033-.33.066-.517.02-.11.07-.216.152-.315l.186-.216a5.276 5.276 0 0 1 .378-.397c.062-.055.116-.099.162-.13a.26.26 0 0 1 .123-.046c.055 0 .083.035.083.106 0 .07-.052.236-.156.497-.194.486-.292.848-.292 1.084 0 .175.046.314.136.418a.45.45 0 0 0 .358.155c.365 0 .803-.269 1.313-.808v-.381c-.361.426-.623.64-.784.64-.109 0-.163-.067-.163-.2 0-.1.065-.316.195-.65.19-.486.285-.836.285-1.048a.464.464 0 0 0-.112-.319.36.36 0 0 0-.282-.127c-.165 0-.354.077-.567.233-.213.156-.5.436-.863.84.053-.262.165-.622.335-1.08l-.809.156a6.54 6.54 0 0 0-.399 1.074c-.04.156-.07.316-.092.48a7.447 7.447 0 0 1-.49.45.38.38 0 0 1-.229.08.208.208 0 0 1-.174-.082.352.352 0 0 1-.064-.222c0-.1.019-.214.056-.343.038-.13.12-.373.249-.731l.308-.849zm-17.21-2.927c-.863-.016-1.67.263-2.261.854-1.352 1.352-1.07 3.827.631 5.527 1.7 1.701 4.95 1.21 5.527.632.467-.466 1.07-3.827-.631-5.527-.957-.957-2.158-1.465-3.267-1.486zm12.285.358h.166v.21H15.4zm.427 0h.166v.865l.46-.455h.195l-.364.362.428.684h-.198l-.357-.575-.164.166v.41h-.166zm1.016 0h.166v.21h-.166zm.481.122h.166v.288h.172v.135h-.172v.717c0 .037.006.062.02.075.012.013.037.02.074.02a.23.23 0 0 0 .078-.01v.141a.802.802 0 0 1-.136.014.23.23 0 0 1-.15-.043.15.15 0 0 1-.052-.123v-.79h-.141v-.136h.141zm-3.562.258c.081 0 .15.012.207.038.057.024.1.061.13.11s.045.106.045.173h-.176c-.006-.111-.075-.167-.208-.167a.285.285 0 0 0-.164.041.134.134 0 0 0-.06.117c0 .035.015.065.045.088.03.024.08.044.15.06l.16.039a.47.47 0 0 1 .224.105c.047.046.07.108.07.186a.3.3 0 0 1-.052.175.327.327 0 0 1-.152.116.585.585 0 0 1-.226.041c-.136 0-.24-.03-.309-.088-.069-.059-.105-.149-.109-.269h.176c.004.037.01.065.017.084a.166.166 0 0 0 .034.054c.044.043.112.065.204.065a.31.31 0 0 0 .177-.045.139.139 0 0 0 .067-.119.116.116 0 0 0-.038-.09.287.287 0 0 0-.124-.055l-.156-.038a1.248 1.248 0 0 1-.159-.05.359.359 0 0 1-.098-.061.22.22 0 0 1-.058-.083.32.32 0 0 1-.016-.108c0-.096.036-.174.109-.232a.45.45 0 0 1 .29-.087zm1.035 0a.46.46 0 0 1 .202.043.351.351 0 0 1 .187.212.577.577 0 0 1 .023.126h-.168a.256.256 0 0 0-.078-.168.242.242 0 0 0-.17-.06.248.248 0 0 0-.155.05.306.306 0 0 0-.1.144.662.662 0 0 0-.034.224.58.58 0 0 0 .035.214.299.299 0 0 0 .101.135.261.261 0 0 0 .157.048c.142 0 .227-.084.256-.252h.167a.519.519 0 0 1-.065.22.35.35 0 0 1-.146.138.464.464 0 0 1-.216.048.448.448 0 0 1-.246-.066.441.441 0 0 1-.161-.192.703.703 0 0 1-.057-.293c0-.085.01-.163.032-.233a.522.522 0 0 1 .095-.182.403.403 0 0 1 .15-.117.453.453 0 0 1 .191-.04zm.603.03h.166v1.046H15.4zm1.443 0h.166v1.046h-.166zm-5.05.618c-.08 0-.2.204-.356.611-.155.407-.308.977-.459 1.71.281-.312.509-.662.683-1.05.175-.387.262-.72.262-.999a.455.455 0 0 0-.036-.197c-.025-.05-.056-.075-.093-.075zm4.662 1.797c-.221 0-.431.188-.629.563-.197.376-.296.722-.296 1.038 0 .12.029.216.088.29a.273.273 0 0 0 .223.111c.221 0 .43-.188.625-.565.196-.377.294-.725.294-1.043a.457.457 0 0 0-.083-.29.269.269 0 0 0-.222-.104zm-2.848.007c-.146 0-.285.11-.417.333-.133.222-.2.51-.2.866.566-.159.849-.452.849-.881 0-.212-.077-.318-.232-.318Z" fill="#F7931E"/></g>
    <text x="3046.0" y="73" text-anchor="middle" font-family="Fira Code, monospace" font-size="9.8" font-weight="600" fill="#38bdf8">scikit-learn</text>
  </g>
  <g>
    <rect x="3124" y="0" width="128" height="86" rx="13" fill="#38bdf8" fill-opacity="0.09" stroke="#38bdf8" stroke-opacity="0.4" stroke-width="1"/>
    <g transform="translate(3169.0,12.0) scale(1.5833)"><path d="M16.922 0h2.623v18.104h-2.623zm-4.126 12.94h2.623v2.57h-2.623zm0-7.037h2.623v5.446h-2.623zm0 11.197h2.623v5.446h-2.623zM4.456 5.896h2.622V24H4.455zm4.213 2.559h2.623v2.57H8.67zm0 4.151h2.623v5.447H8.67zm0-11.187h2.623v5.446H8.67Z" fill="#150458"/></g>
    <text x="3188.0" y="73" text-anchor="middle" font-family="Fira Code, monospace" font-size="11" font-weight="600" fill="#38bdf8">Pandas</text>
  </g>
  <g>
    <rect x="3266" y="0" width="128" height="86" rx="13" fill="#38bdf8" fill-opacity="0.09" stroke="#38bdf8" stroke-opacity="0.4" stroke-width="1"/>
    <g transform="translate(3311.0,12.0) scale(1.5833)"><path d="M10.315 4.876L6.3048 2.8517l-4.401 2.1965 4.1186 2.0683zm1.8381.9277l4.2045 2.1223-4.3622 2.1906-4.125-2.0718zm5.6153-2.9213l4.3193 2.1658-3.863 1.9402-4.2131-2.1252zm-1.859-.9329L12.021 0 8.1742 1.9193l4.0068 2.0208zm-3.0401 16.7443V24l4.7107-2.3507-.0053-5.3085zm4.7037-4.2057l-.0052-5.2528-4.6985 2.3356v5.2546zm5.6553-.9845v5.327l-4.0178 2.0052-.0029-5.3028zm0-1.8626V6.4214l-4.0253 2.001.0034 5.2633zM11.2062 11.571L8.0333 9.9756v6.895s-3.8804-8.2564-4.2399-8.998c-.0463-.0957-.2371-.2007-.2858-.2262C2.8118 7.2812.773 6.2485.773 6.2485V18.43l2.8204 1.5076v-6.3674s3.8392 7.3775 3.878 7.458c.0389.0807.4245.8582.8362 1.1314.5485.363 2.8992 1.7766 2.8992 1.7766z" fill="#013243"/></g>
    <text x="3330.0" y="73" text-anchor="middle" font-family="Fira Code, monospace" font-size="11" font-weight="600" fill="#38bdf8">NumPy</text>
  </g>
  <g>
    <rect x="3408" y="0" width="128" height="86" rx="13" fill="#34d399" fill-opacity="0.09" stroke="#34d399" stroke-opacity="0.4" stroke-width="1"/>
    <circle cx="3466.0" cy="31.0" r="6.5" fill="none" stroke="#34d399" stroke-width="2.3"/><circle cx="3478.0" cy="31.0" r="6.5" fill="none" stroke="#34d399" stroke-width="2.3"/>
    <text x="3472.0" y="73" text-anchor="middle" font-family="Fira Code, monospace" font-size="11" font-weight="600" fill="#34d399">LangChain</text>
  </g>
  <g>
    <rect x="3550" y="0" width="128" height="86" rx="13" fill="#34d399" fill-opacity="0.09" stroke="#34d399" stroke-opacity="0.4" stroke-width="1"/>
    <path d="M 3618.0 17.0 L 3606.0 33.0 L 3613.0 33.0 L 3610.0 45.0 L 3623.0 27.0 L 3616.0 27.0 Z" fill="#34d399"/>
    <text x="3614.0" y="73" text-anchor="middle" font-family="Fira Code, monospace" font-size="11" font-weight="600" fill="#34d399">Groq API</text>
  </g>
  <g>
    <rect x="3692" y="0" width="128" height="86" rx="13" fill="#34d399" fill-opacity="0.09" stroke="#34d399" stroke-opacity="0.4" stroke-width="1"/>
    <circle cx="3753.0" cy="28.0" r="9" fill="none" stroke="#34d399" stroke-width="2.5"/><line x1="3759.0" y1="34.0" x2="3766.0" y2="41.0" stroke="#34d399" stroke-width="2.5" stroke-linecap="round"/>
    <text x="3756.0" y="73" text-anchor="middle" font-family="Fira Code, monospace" font-size="11" font-weight="600" fill="#34d399">RAG</text>
  </g>
  <g>
    <rect x="3834" y="0" width="128" height="86" rx="13" fill="#34d399" fill-opacity="0.09" stroke="#34d399" stroke-opacity="0.4" stroke-width="1"/>
    <line x1="3888.0" y1="39.0" x2="3898.0" y2="21.0" stroke="#34d399" stroke-width="2"/><line x1="3898.0" y1="21.0" x2="3908.0" y2="39.0" stroke="#34d399" stroke-width="2"/><line x1="3888.0" y1="39.0" x2="3908.0" y2="39.0" stroke="#34d399" stroke-width="2"/><circle cx="3888.0" cy="39.0" r="3.5" fill="#34d399"/><circle cx="3898.0" cy="21.0" r="3.5" fill="#34d399"/><circle cx="3908.0" cy="39.0" r="3.5" fill="#34d399"/>
    <text x="3898.0" y="73" text-anchor="middle" font-family="Fira Code, monospace" font-size="11" font-weight="600" fill="#34d399">GraphRAG</text>
  </g>
  <g>
    <rect x="3976" y="0" width="128" height="86" rx="13" fill="#34d399" fill-opacity="0.09" stroke="#34d399" stroke-opacity="0.4" stroke-width="1"/>
    <path d="M 4040.0 19.0 L 4050.0 25.0 L 4050.0 37.0 L 4040.0 43.0 L 4030.0 37.0 L 4030.0 25.0 Z" fill="none" stroke="#34d399" stroke-width="2.2" stroke-linejoin="round"/><circle cx="4040.0" cy="31.0" r="3" fill="#34d399"/>
    <text x="4040.0" y="73" text-anchor="middle" font-family="Fira Code, monospace" font-size="11" font-weight="600" fill="#34d399">Qdrant</text>
  </g>
  <g>
    <rect x="4118" y="0" width="128" height="86" rx="13" fill="#34d399" fill-opacity="0.09" stroke="#34d399" stroke-opacity="0.4" stroke-width="1"/>
    <rect x="4171.0" y="20.5" width="22" height="5" rx="2.5" fill="#34d399" opacity="0.9"/><rect x="4174.5" y="28.5" width="15" height="5" rx="2.5" fill="#34d399" opacity="0.75"/><rect x="4177.5" y="36.5" width="9" height="5" rx="2.5" fill="#34d399" opacity="0.6000000000000001"/>
    <text x="4182.0" y="73" text-anchor="middle" font-family="Fira Code, monospace" font-size="8.2" font-weight="600" fill="#34d399">Sentence-Transformers</text>
  </g>
  <g>
    <rect x="4260" y="0" width="128" height="86" rx="13" fill="#34d399" fill-opacity="0.09" stroke="#34d399" stroke-opacity="0.4" stroke-width="1"/>
    <rect x="4311.0" y="21.0" width="26" height="17" rx="5" fill="none" stroke="#34d399" stroke-width="2.2"/><path d="M 4318.0 38.0 L 4314.0 44.0 L 4322.0 38.0 Z" fill="#34d399"/><line x1="4318.0" y1="29.0" x2="4330.0" y2="29.0" stroke="#34d399" stroke-width="2" stroke-linecap="round"/>
    <text x="4324.0" y="73" text-anchor="middle" font-family="Fira Code, monospace" font-size="9" font-weight="600" fill="#34d399">Prompt Engineering</text>
  </g>
  <g>
    <rect x="4402" y="0" width="128" height="86" rx="13" fill="#34d399" fill-opacity="0.09" stroke="#34d399" stroke-opacity="0.4" stroke-width="1"/>
    <path d="M 4457.0 25.0 A 10 10 0 1 1 4457.0 37.0" fill="none" stroke="#34d399" stroke-width="2.3" stroke-linecap="round"/><path d="M 4457.0 25.0 L 4453.0 25.0 M 4457.0 25.0 L 4457.0 21.0" stroke="#34d399" stroke-width="2.3" fill="none" stroke-linecap="round"/><circle cx="4475.0" cy="31.0" r="3" fill="#34d399"/>
    <text x="4466.0" y="73" text-anchor="middle" font-family="Fira Code, monospace" font-size="9.8" font-weight="600" fill="#34d399">Agent Workflows</text>
  </g>
    </g>
    <g transform="translate(-1798,454)">
      <animateTransform attributeName="transform" type="translate" from="-1798,454" to="48,454" dur="41.0s" repeatCount="indefinite"/>
      
  <g>
    <rect x="0" y="0" width="128" height="86" rx="13" fill="#4ade80" fill-opacity="0.09" stroke="#4ade80" stroke-opacity="0.4" stroke-width="1"/>
    <g transform="translate(45.0,12.0) scale(1.5833)"><path d="M12 0C5.375 0 0 5.375 0 12c0 6.627 5.375 12 12 12 6.626 0 12-5.373 12-12 0-6.625-5.373-12-12-12zm-.624 21.62v-7.528H7.19L13.203 2.38v7.528h4.029L11.376 21.62z" fill="#009688"/></g>
    <text x="64.0" y="73" text-anchor="middle" font-family="Fira Code, monospace" font-size="11" font-weight="600" fill="#4ade80">FastAPI</text>
  </g>
  <g>
    <rect x="142" y="0" width="128" height="86" rx="13" fill="#4ade80" fill-opacity="0.09" stroke="#4ade80" stroke-opacity="0.4" stroke-width="1"/>
    <path d="M 202.0 20.0 L 193.0 31.0 L 202.0 42.0" fill="none" stroke="#4ade80" stroke-width="2.3" stroke-linecap="round" stroke-linejoin="round"/><path d="M 210.0 20.0 L 219.0 31.0 L 210.0 42.0" fill="none" stroke="#4ade80" stroke-width="2.3" stroke-linecap="round" stroke-linejoin="round"/>
    <text x="206.0" y="73" text-anchor="middle" font-family="Fira Code, monospace" font-size="11" font-weight="600" fill="#4ade80">REST APIs</text>
  </g>
  <g>
    <rect x="284" y="0" width="128" height="86" rx="13" fill="#4ade80" fill-opacity="0.09" stroke="#4ade80" stroke-opacity="0.4" stroke-width="1"/>
    <g transform="translate(329.0,12.0) scale(1.5833)"><path d="M16.405 5.501c-.115 0-.193.014-.274.033v.013h.014c.054.104.146.18.214.273.054.107.1.214.154.32l.014-.015c.094-.066.14-.172.14-.333-.04-.047-.046-.094-.08-.14-.04-.067-.126-.1-.18-.153zM5.77 18.695h-.927a50.854 50.854 0 00-.27-4.41h-.008l-1.41 4.41H2.45l-1.4-4.41h-.01a72.892 72.892 0 00-.195 4.41H0c.055-1.966.192-3.81.41-5.53h1.15l1.335 4.064h.008l1.347-4.064h1.095c.242 2.015.384 3.86.428 5.53zm4.017-4.08c-.378 2.045-.876 3.533-1.492 4.46-.482.716-1.01 1.073-1.583 1.073-.153 0-.34-.046-.566-.138v-.494c.11.017.24.026.386.026.268 0 .483-.075.647-.222.197-.18.295-.382.295-.605 0-.155-.077-.47-.23-.944L6.23 14.615h.91l.727 2.36c.164.536.233.91.205 1.123.4-1.064.678-2.227.835-3.483zm12.325 4.08h-2.63v-5.53h.885v4.85h1.745zm-3.32.135l-1.016-.5c.09-.076.177-.158.255-.25.433-.506.648-1.258.648-2.253 0-1.83-.718-2.746-2.155-2.746-.704 0-1.254.232-1.65.697-.43.508-.646 1.256-.646 2.245 0 .972.19 1.686.574 2.14.35.41.877.615 1.583.615.264 0 .506-.033.725-.098l1.325.772.36-.622zM15.5 17.588c-.225-.36-.337-.94-.337-1.736 0-1.393.424-2.09 1.27-2.09.443 0 .77.167.977.5.224.362.336.936.336 1.723 0 1.404-.424 2.108-1.27 2.108-.445 0-.77-.167-.978-.5zm-1.658-.425c0 .47-.172.856-.516 1.156-.344.3-.803.45-1.384.45-.543 0-1.064-.172-1.573-.515l.237-.476c.438.22.833.328 1.19.328.332 0 .593-.073.783-.22a.754.754 0 00.3-.615c0-.33-.23-.61-.648-.845-.388-.213-1.163-.657-1.163-.657-.422-.307-.632-.636-.632-1.177 0-.45.157-.81.47-1.085.315-.278.72-.415 1.22-.415.512 0 .98.136 1.4.41l-.213.476a2.726 2.726 0 00-1.064-.23c-.283 0-.502.068-.654.206a.685.685 0 00-.248.524c0 .328.234.61.666.85.393.215 1.187.67 1.187.67.433.305.648.63.648 1.168zm9.382-5.852c-.535-.014-.95.04-1.297.188-.1.04-.26.04-.274.167.055.053.063.14.11.214.08.134.218.313.346.407.14.11.28.216.427.31.26.16.555.255.81.416.145.094.293.213.44.313.073.05.12.14.214.172v-.02c-.046-.06-.06-.147-.105-.214-.067-.067-.134-.127-.2-.193a3.223 3.223 0 00-.695-.675c-.214-.146-.682-.35-.77-.595l-.013-.014c.146-.013.32-.066.46-.106.227-.06.435-.047.67-.106.106-.027.213-.06.32-.094v-.06c-.12-.12-.21-.283-.334-.395a8.867 8.867 0 00-1.104-.823c-.21-.134-.476-.22-.697-.334-.08-.04-.214-.06-.26-.127-.12-.146-.19-.34-.275-.514a17.69 17.69 0 01-.547-1.163c-.12-.262-.193-.523-.34-.763-.69-1.137-1.437-1.826-2.586-2.5-.247-.14-.543-.2-.856-.274-.167-.008-.334-.02-.5-.027-.11-.047-.216-.174-.31-.235-.38-.24-1.364-.76-1.644-.072-.18.434.267.862.422 1.082.115.153.26.328.34.5.047.116.06.235.107.356.106.294.207.622.347.897.073.14.153.287.247.413.054.073.146.107.167.227-.094.136-.1.334-.154.5-.24.757-.146 1.693.194 2.25.107.166.362.534.703.393.3-.12.234-.5.32-.835.02-.08.007-.133.048-.187v.015c.094.188.188.367.274.555.206.328.566.668.867.895.16.12.287.328.487.402v-.02h-.015c-.043-.058-.1-.086-.154-.133a3.445 3.445 0 01-.35-.4 8.76 8.76 0 01-.747-1.218c-.11-.21-.202-.436-.29-.643-.04-.08-.04-.2-.107-.24-.1.146-.247.273-.32.453-.127.288-.14.642-.188 1.01-.027.007-.014 0-.027.014-.214-.052-.287-.274-.367-.46-.2-.475-.233-1.238-.06-1.785.047-.14.247-.582.167-.716-.042-.127-.174-.2-.247-.303a2.478 2.478 0 01-.24-.427c-.16-.374-.24-.788-.414-1.162-.08-.173-.22-.354-.334-.513-.127-.18-.267-.307-.368-.52-.033-.073-.08-.194-.027-.274.014-.054.042-.075.094-.09.088-.072.335.022.422.062.247.1.455.194.662.334.094.066.195.193.315.226h.14c.214.047.455.014.655.073.355.114.675.28.962.46a5.953 5.953 0 012.085 2.286c.08.154.115.295.188.455.14.33.313.663.455.982.14.315.275.636.476.897.1.14.502.213.682.286.133.06.34.115.46.188.23.14.454.3.67.454.11.076.443.243.463.378z" fill="#4479A1"/></g>
    <text x="348.0" y="73" text-anchor="middle" font-family="Fira Code, monospace" font-size="11" font-weight="600" fill="#4ade80">MySQL</text>
  </g>
  <g>
    <rect x="426" y="0" width="128" height="86" rx="13" fill="#4ade80" fill-opacity="0.09" stroke="#4ade80" stroke-opacity="0.4" stroke-width="1"/>
    <g transform="translate(471.0,12.0) scale(1.5833)"><path d="M21.333 10H24v4h-2.667ZM16 1.335h2.667v21.33H16Zm-5.333 0h2.666v21.33h-2.666ZM0 22.665V1.335h2.667v21.33zm5.333-21.33H8v21.33H5.333Z" fill="#FFCC01"/></g>
    <text x="490.0" y="73" text-anchor="middle" font-family="Fira Code, monospace" font-size="11" font-weight="600" fill="#4ade80">ClickHouse</text>
  </g>
  <g>
    <rect x="568" y="0" width="128" height="86" rx="13" fill="#4ade80" fill-opacity="0.09" stroke="#4ade80" stroke-opacity="0.4" stroke-width="1"/>
    <g transform="translate(613.0,12.0) scale(1.5833)"><path d="M13.983 11.078h2.119a.186.186 0 00.186-.185V9.006a.186.186 0 00-.186-.186h-2.119a.185.185 0 00-.185.185v1.888c0 .102.083.185.185.185m-2.954-5.43h2.118a.186.186 0 00.186-.186V3.574a.186.186 0 00-.186-.185h-2.118a.185.185 0 00-.185.185v1.888c0 .102.082.185.185.185m0 2.716h2.118a.187.187 0 00.186-.186V6.29a.186.186 0 00-.186-.185h-2.118a.185.185 0 00-.185.185v1.887c0 .102.082.185.185.186m-2.93 0h2.12a.186.186 0 00.184-.186V6.29a.185.185 0 00-.185-.185H8.1a.185.185 0 00-.185.185v1.887c0 .102.083.185.185.186m-2.964 0h2.119a.186.186 0 00.185-.186V6.29a.185.185 0 00-.185-.185H5.136a.186.186 0 00-.186.185v1.887c0 .102.084.185.186.186m5.893 2.715h2.118a.186.186 0 00.186-.185V9.006a.186.186 0 00-.186-.186h-2.118a.185.185 0 00-.185.185v1.888c0 .102.082.185.185.185m-2.93 0h2.12a.185.185 0 00.184-.185V9.006a.185.185 0 00-.184-.186h-2.12a.185.185 0 00-.184.185v1.888c0 .102.083.185.185.185m-2.964 0h2.119a.185.185 0 00.185-.185V9.006a.185.185 0 00-.184-.186h-2.12a.186.186 0 00-.186.186v1.887c0 .102.084.185.186.185m-2.92 0h2.12a.185.185 0 00.184-.185V9.006a.185.185 0 00-.184-.186h-2.12a.185.185 0 00-.184.185v1.888c0 .102.082.185.185.185M23.763 9.89c-.065-.051-.672-.51-1.954-.51-.338.001-.676.03-1.01.087-.248-1.7-1.653-2.53-1.716-2.566l-.344-.199-.226.327c-.284.438-.49.922-.612 1.43-.23.97-.09 1.882.403 2.661-.595.332-1.55.413-1.744.42H.751a.751.751 0 00-.75.748 11.376 11.376 0 00.692 4.062c.545 1.428 1.355 2.48 2.41 3.124 1.18.723 3.1 1.137 5.275 1.137.983.003 1.963-.086 2.93-.266a12.248 12.248 0 003.823-1.389c.98-.567 1.86-1.288 2.61-2.136 1.252-1.418 1.998-2.997 2.553-4.4h.221c1.372 0 2.215-.549 2.68-1.009.309-.293.55-.65.707-1.046l.098-.288Z" fill="#2496ED"/></g>
    <text x="632.0" y="73" text-anchor="middle" font-family="Fira Code, monospace" font-size="11" font-weight="600" fill="#4ade80">Docker</text>
  </g>
  <g>
    <rect x="710" y="0" width="128" height="86" rx="13" fill="#4ade80" fill-opacity="0.09" stroke="#4ade80" stroke-opacity="0.4" stroke-width="1"/>
    <g transform="translate(755.0,12.0) scale(1.5833)"><path d="M10.204 14.35l.007.01-.999 2.413a5.171 5.171 0 0 1-2.075-2.597l2.578-.437.004.005a.44.44 0 0 1 .484.606zm-.833-2.129a.44.44 0 0 0 .173-.756l.002-.011L7.585 9.7a5.143 5.143 0 0 0-.73 3.255l2.514-.725.002-.009zm1.145-1.98a.44.44 0 0 0 .699-.337l.01-.005.15-2.62a5.144 5.144 0 0 0-3.01 1.442l2.147 1.523.004-.002zm.76 2.75l.723.349.722-.347.18-.78-.5-.623h-.804l-.5.623.179.779zm1.5-3.095a.44.44 0 0 0 .7.336l.008.003 2.134-1.513a5.188 5.188 0 0 0-2.992-1.442l.148 2.615.002.001zm10.876 5.97l-5.773 7.181a1.6 1.6 0 0 1-1.248.594l-9.261.003a1.6 1.6 0 0 1-1.247-.596l-5.776-7.18a1.583 1.583 0 0 1-.307-1.34L2.1 5.573c.108-.47.425-.864.863-1.073L11.305.513a1.606 1.606 0 0 1 1.385 0l8.345 3.985c.438.209.755.604.863 1.073l2.062 8.955c.108.47-.005.963-.308 1.34zm-3.289-2.057c-.042-.01-.103-.026-.145-.034-.174-.033-.315-.025-.479-.038-.35-.037-.638-.067-.895-.148-.105-.04-.18-.165-.216-.216l-.201-.059a6.45 6.45 0 0 0-.105-2.332 6.465 6.465 0 0 0-.936-2.163c.052-.047.15-.133.177-.159.008-.09.001-.183.094-.282.197-.185.444-.338.743-.522.142-.084.273-.137.415-.242.032-.024.076-.062.11-.089.24-.191.295-.52.123-.736-.172-.216-.506-.236-.745-.045-.034.027-.08.062-.111.088-.134.116-.217.23-.33.35-.246.25-.45.458-.673.609-.097.056-.239.037-.303.033l-.19.135a6.545 6.545 0 0 0-4.146-2.003l-.012-.223c-.065-.062-.143-.115-.163-.25-.022-.268.015-.557.057-.905.023-.163.061-.298.068-.475.001-.04-.001-.099-.001-.142 0-.306-.224-.555-.5-.555-.275 0-.499.249-.499.555l.001.014c0 .041-.002.092 0 .128.006.177.044.312.067.475.042.348.078.637.056.906a.545.545 0 0 1-.162.258l-.012.211a6.424 6.424 0 0 0-4.166 2.003 8.373 8.373 0 0 1-.18-.128c-.09.012-.18.04-.297-.029-.223-.15-.427-.358-.673-.608-.113-.12-.195-.234-.329-.349-.03-.026-.077-.062-.111-.088a.594.594 0 0 0-.348-.132.481.481 0 0 0-.398.176c-.172.216-.117.546.123.737l.007.005.104.083c.142.105.272.159.414.242.299.185.546.338.743.522.076.082.09.226.1.288l.16.143a6.462 6.462 0 0 0-1.02 4.506l-.208.06c-.055.072-.133.184-.215.217-.257.081-.546.11-.895.147-.164.014-.305.006-.48.039-.037.007-.09.02-.133.03l-.004.002-.007.002c-.295.071-.484.342-.423.608.061.267.349.429.645.365l.007-.001.01-.003.129-.029c.17-.046.294-.113.448-.172.33-.118.604-.217.87-.256.112-.009.23.069.288.101l.217-.037a6.5 6.5 0 0 0 2.88 3.596l-.09.218c.033.084.069.199.044.282-.097.252-.263.517-.452.813-.091.136-.185.242-.268.399-.02.037-.045.095-.064.134-.128.275-.034.591.213.71.248.12.556-.007.69-.282v-.002c.02-.039.046-.09.062-.127.07-.162.094-.301.144-.458.132-.332.205-.68.387-.897.05-.06.13-.082.215-.105l.113-.205a6.453 6.453 0 0 0 4.609.012l.106.192c.086.028.18.042.256.155.136.232.229.507.342.84.05.156.074.295.145.457.016.037.043.09.062.129.133.276.442.402.69.282.247-.118.341-.435.213-.71-.02-.039-.045-.096-.065-.134-.083-.156-.177-.261-.268-.398-.19-.296-.346-.541-.443-.793-.04-.13.007-.21.038-.294-.018-.022-.059-.144-.083-.202a6.499 6.499 0 0 0 2.88-3.622c.064.01.176.03.213.038.075-.05.144-.114.28-.104.266.039.54.138.87.256.154.06.277.128.448.173.036.01.088.019.13.028l.009.003.007.001c.297.064.584-.098.645-.365.06-.266-.128-.537-.423-.608zM16.4 9.701l-1.95 1.746v.005a.44.44 0 0 0 .173.757l.003.01 2.526.728a5.199 5.199 0 0 0-.108-1.674A5.208 5.208 0 0 0 16.4 9.7zm-4.013 5.325a.437.437 0 0 0-.404-.232.44.44 0 0 0-.372.233h-.002l-1.268 2.292a5.164 5.164 0 0 0 3.326.003l-1.27-2.296h-.01zm1.888-1.293a.44.44 0 0 0-.27.036.44.44 0 0 0-.214.572l-.003.004 1.01 2.438a5.15 5.15 0 0 0 2.081-2.615l-2.6-.44-.004.005z" fill="#326CE5"/></g>
    <text x="774.0" y="73" text-anchor="middle" font-family="Fira Code, monospace" font-size="11" font-weight="600" fill="#4ade80">Kubernetes</text>
  </g>
  <g>
    <rect x="852" y="0" width="128" height="86" rx="13" fill="#4ade80" fill-opacity="0.09" stroke="#4ade80" stroke-opacity="0.4" stroke-width="1"/>
    <path d="M 904.0 35.0 a 7 7 0 0 1 2 -13.7 a 9 9 0 0 1 17 3.3 a 6 6 0 0 1 -1 13.4 Z" fill="none" stroke="#4ade80" stroke-width="2.2" stroke-linejoin="round"/>
    <text x="916.0" y="73" text-anchor="middle" font-family="Fira Code, monospace" font-size="11" font-weight="600" fill="#4ade80">AWS</text>
  </g>
  <g>
    <rect x="994" y="0" width="128" height="86" rx="13" fill="#4ade80" fill-opacity="0.09" stroke="#4ade80" stroke-opacity="0.4" stroke-width="1"/>
    <g transform="translate(1039.0,12.0) scale(1.5833)"><path d="M23.546 10.93L13.067.452c-.604-.603-1.582-.603-2.188 0L8.708 2.627l2.76 2.76c.645-.215 1.379-.07 1.889.441.516.515.658 1.258.438 1.9l2.658 2.66c.645-.223 1.387-.078 1.9.435.721.72.721 1.884 0 2.604-.719.719-1.881.719-2.6 0-.539-.541-.674-1.337-.404-1.996L12.86 8.955v6.525c.176.086.342.203.488.348.713.721.713 1.883 0 2.6-.719.721-1.889.721-2.609 0-.719-.719-.719-1.879 0-2.598.182-.18.387-.316.605-.406V8.835c-.217-.091-.424-.222-.6-.401-.545-.545-.676-1.342-.396-2.009L7.636 3.7.45 10.881c-.6.605-.6 1.584 0 2.189l10.48 10.477c.604.604 1.582.604 2.186 0l10.43-10.43c.605-.603.605-1.582 0-2.187" fill="#F05032"/></g>
    <text x="1058.0" y="73" text-anchor="middle" font-family="Fira Code, monospace" font-size="11" font-weight="600" fill="#4ade80">Git</text>
  </g>
  <g>
    <rect x="1136" y="0" width="128" height="86" rx="13" fill="#facc15" fill-opacity="0.09" stroke="#facc15" stroke-opacity="0.4" stroke-width="1"/>
    <g transform="translate(1181.0,12.0) scale(1.5833)"><path d="M14.23 12.004a2.236 2.236 0 0 1-2.235 2.236 2.236 2.236 0 0 1-2.236-2.236 2.236 2.236 0 0 1 2.235-2.236 2.236 2.236 0 0 1 2.236 2.236zm2.648-10.69c-1.346 0-3.107.96-4.888 2.622-1.78-1.653-3.542-2.602-4.887-2.602-.41 0-.783.093-1.106.278-1.375.793-1.683 3.264-.973 6.365C1.98 8.917 0 10.42 0 12.004c0 1.59 1.99 3.097 5.043 4.03-.704 3.113-.39 5.588.988 6.38.32.187.69.275 1.102.275 1.345 0 3.107-.96 4.888-2.624 1.78 1.654 3.542 2.603 4.887 2.603.41 0 .783-.09 1.106-.275 1.374-.792 1.683-3.263.973-6.365C22.02 15.096 24 13.59 24 12.004c0-1.59-1.99-3.097-5.043-4.032.704-3.11.39-5.587-.988-6.38-.318-.184-.688-.277-1.092-.278zm-.005 1.09v.006c.225 0 .406.044.558.127.666.382.955 1.835.73 3.704-.054.46-.142.945-.25 1.44-.96-.236-2.006-.417-3.107-.534-.66-.905-1.345-1.727-2.035-2.447 1.592-1.48 3.087-2.292 4.105-2.295zm-9.77.02c1.012 0 2.514.808 4.11 2.28-.686.72-1.37 1.537-2.02 2.442-1.107.117-2.154.298-3.113.538-.112-.49-.195-.964-.254-1.42-.23-1.868.054-3.32.714-3.707.19-.09.4-.127.563-.132zm4.882 3.05c.455.468.91.992 1.36 1.564-.44-.02-.89-.034-1.345-.034-.46 0-.915.01-1.36.034.44-.572.895-1.096 1.345-1.565zM12 8.1c.74 0 1.477.034 2.202.093.406.582.802 1.203 1.183 1.86.372.64.71 1.29 1.018 1.946-.308.655-.646 1.31-1.013 1.95-.38.66-.773 1.288-1.18 1.87-.728.063-1.466.098-2.21.098-.74 0-1.477-.035-2.202-.093-.406-.582-.802-1.204-1.183-1.86-.372-.64-.71-1.29-1.018-1.946.303-.657.646-1.313 1.013-1.954.38-.66.773-1.286 1.18-1.868.728-.064 1.466-.098 2.21-.098zm-3.635.254c-.24.377-.48.763-.704 1.16-.225.39-.435.782-.635 1.174-.265-.656-.49-1.31-.676-1.947.64-.15 1.315-.283 2.015-.386zm7.26 0c.695.103 1.365.23 2.006.387-.18.632-.405 1.282-.66 1.933-.2-.39-.41-.783-.64-1.174-.225-.392-.465-.774-.705-1.146zm3.063.675c.484.15.944.317 1.375.498 1.732.74 2.852 1.708 2.852 2.476-.005.768-1.125 1.74-2.857 2.475-.42.18-.88.342-1.355.493-.28-.958-.646-1.956-1.1-2.98.45-1.017.81-2.01 1.085-2.964zm-13.395.004c.278.96.645 1.957 1.1 2.98-.45 1.017-.812 2.01-1.086 2.964-.484-.15-.944-.318-1.37-.5-1.732-.737-2.852-1.706-2.852-2.474 0-.768 1.12-1.742 2.852-2.476.42-.18.88-.342 1.356-.494zm11.678 4.28c.265.657.49 1.312.676 1.948-.64.157-1.316.29-2.016.39.24-.375.48-.762.705-1.158.225-.39.435-.788.636-1.18zm-9.945.02c.2.392.41.783.64 1.175.23.39.465.772.705 1.143-.695-.102-1.365-.23-2.006-.386.18-.63.406-1.282.66-1.933zM17.92 16.32c.112.493.2.968.254 1.423.23 1.868-.054 3.32-.714 3.708-.147.09-.338.128-.563.128-1.012 0-2.514-.807-4.11-2.28.686-.72 1.37-1.536 2.02-2.44 1.107-.118 2.154-.3 3.113-.54zm-11.83.01c.96.234 2.006.415 3.107.532.66.905 1.345 1.727 2.035 2.446-1.595 1.483-3.092 2.295-4.11 2.295-.22-.005-.406-.05-.553-.132-.666-.38-.955-1.834-.73-3.703.054-.46.142-.944.25-1.438zm4.56.64c.44.02.89.034 1.345.034.46 0 .915-.01 1.36-.034-.44.572-.895 1.095-1.345 1.565-.455-.47-.91-.993-1.36-1.565z" fill="#61DAFB"/></g>
    <text x="1200.0" y="73" text-anchor="middle" font-family="Fira Code, monospace" font-size="11" font-weight="600" fill="#facc15">React</text>
  </g>
  <g>
    <rect x="1278" y="0" width="128" height="86" rx="13" fill="#facc15" fill-opacity="0.09" stroke="#facc15" stroke-opacity="0.4" stroke-width="1"/>
    <g transform="translate(1323.0,12.0) scale(1.5833)"><path d="M11.5725 0c-.1763 0-.3098.0013-.3584.0067-.0516.0053-.2159.021-.3636.0328-3.4088.3073-6.6017 2.1463-8.624 4.9728C1.1004 6.584.3802 8.3666.1082 10.255c-.0962.659-.108.8537-.108 1.7474s.012 1.0884.108 1.7476c.652 4.506 3.8591 8.2919 8.2087 9.6945.7789.2511 1.6.4223 2.5337.5255.3636.04 1.9354.04 2.299 0 1.6117-.1783 2.9772-.577 4.3237-1.2643.2065-.1056.2464-.1337.2183-.1573-.0188-.0139-.8987-1.1938-1.9543-2.62l-1.919-2.592-2.4047-3.5583c-1.3231-1.9564-2.4117-3.556-2.4211-3.556-.0094-.0026-.0187 1.5787-.0235 3.509-.0067 3.3802-.0093 3.5162-.0516 3.596-.061.115-.108.1618-.2064.2134-.075.0374-.1408.0445-.495.0445h-.406l-.1078-.068a.4383.4383 0 01-.1572-.1712l-.0493-.1056.0053-4.703.0067-4.7054.0726-.0915c.0376-.0493.1174-.1125.1736-.143.0962-.047.1338-.0517.5396-.0517.4787 0 .5584.0187.6827.1547.0353.0377 1.3373 1.9987 2.895 4.3608a10760.433 10760.433 0 004.7344 7.1706l1.9002 2.8782.096-.0633c.8518-.5536 1.7525-1.3418 2.4657-2.1627 1.5179-1.7429 2.4963-3.868 2.8247-6.134.0961-.6591.1078-.854.1078-1.7475 0-.8937-.012-1.0884-.1078-1.7476-.6522-4.506-3.8592-8.2919-8.2087-9.6945-.7672-.2487-1.5836-.42-2.4985-.5232-.169-.0176-1.0835-.0366-1.6123-.037zm4.0685 7.217c.3473 0 .4082.0053.4857.047.1127.0562.204.1642.237.2767.0186.061.0234 1.3653.0186 4.3044l-.0067 4.2175-.7436-1.14-.7461-1.14v-3.066c0-1.982.0093-3.0963.0234-3.1502.0375-.1313.1196-.2346.2323-.2955.0961-.0494.1313-.054.4997-.054z" fill="#ffffff"/></g>
    <text x="1342.0" y="73" text-anchor="middle" font-family="Fira Code, monospace" font-size="11" font-weight="600" fill="#facc15">Next.js</text>
  </g>
  <g>
    <rect x="1420" y="0" width="128" height="86" rx="13" fill="#facc15" fill-opacity="0.09" stroke="#facc15" stroke-opacity="0.4" stroke-width="1"/>
    <rect x="1472.0" y="33.0" width="6" height="6" rx="1.5" fill="#facc15"/><rect x="1481.0" y="27.0" width="6" height="12" rx="1.5" fill="#facc15"/><rect x="1490.0" y="23.0" width="6" height="16" rx="1.5" fill="#facc15"/>
    <text x="1484.0" y="73" text-anchor="middle" font-family="Fira Code, monospace" font-size="11" font-weight="600" fill="#facc15">Power BI</text>
  </g>
  <g>
    <rect x="1562" y="0" width="128" height="86" rx="13" fill="#facc15" fill-opacity="0.09" stroke="#facc15" stroke-opacity="0.4" stroke-width="1"/>
    <polyline points="1614.0,37.0 1621.0,23.0 1628.0,33.0 1637.0,21.0" fill="none" stroke="#facc15" stroke-width="2.2" stroke-linecap="round" stroke-linejoin="round"/><circle cx="1621.0" cy="23.0" r="1.8" fill="#facc15"/><circle cx="1637.0" cy="21.0" r="1.8" fill="#facc15"/>
    <text x="1626.0" y="73" text-anchor="middle" font-family="Fira Code, monospace" font-size="11" font-weight="600" fill="#facc15">Matplotlib</text>
  </g>
  <g>
    <rect x="1704" y="0" width="128" height="86" rx="13" fill="#facc15" fill-opacity="0.09" stroke="#facc15" stroke-opacity="0.4" stroke-width="1"/>
    <path d="M 1756.0 39.0 Q 1762.0 19.0 1768.0 31.0 T 1780.0 23.0" fill="none" stroke="#facc15" stroke-width="2.3" stroke-linecap="round"/>
    <text x="1768.0" y="73" text-anchor="middle" font-family="Fira Code, monospace" font-size="11" font-weight="600" fill="#facc15">Seaborn</text>
  </g>
  <g>
    <rect x="1846" y="0" width="128" height="86" rx="13" fill="#4ade80" fill-opacity="0.09" stroke="#4ade80" stroke-opacity="0.4" stroke-width="1"/>
    <g transform="translate(1891.0,12.0) scale(1.5833)"><path d="M12 0C5.375 0 0 5.375 0 12c0 6.627 5.375 12 12 12 6.626 0 12-5.373 12-12 0-6.625-5.373-12-12-12zm-.624 21.62v-7.528H7.19L13.203 2.38v7.528h4.029L11.376 21.62z" fill="#009688"/></g>
    <text x="1910.0" y="73" text-anchor="middle" font-family="Fira Code, monospace" font-size="11" font-weight="600" fill="#4ade80">FastAPI</text>
  </g>
  <g>
    <rect x="1988" y="0" width="128" height="86" rx="13" fill="#4ade80" fill-opacity="0.09" stroke="#4ade80" stroke-opacity="0.4" stroke-width="1"/>
    <path d="M 2048.0 20.0 L 2039.0 31.0 L 2048.0 42.0" fill="none" stroke="#4ade80" stroke-width="2.3" stroke-linecap="round" stroke-linejoin="round"/><path d="M 2056.0 20.0 L 2065.0 31.0 L 2056.0 42.0" fill="none" stroke="#4ade80" stroke-width="2.3" stroke-linecap="round" stroke-linejoin="round"/>
    <text x="2052.0" y="73" text-anchor="middle" font-family="Fira Code, monospace" font-size="11" font-weight="600" fill="#4ade80">REST APIs</text>
  </g>
  <g>
    <rect x="2130" y="0" width="128" height="86" rx="13" fill="#4ade80" fill-opacity="0.09" stroke="#4ade80" stroke-opacity="0.4" stroke-width="1"/>
    <g transform="translate(2175.0,12.0) scale(1.5833)"><path d="M16.405 5.501c-.115 0-.193.014-.274.033v.013h.014c.054.104.146.18.214.273.054.107.1.214.154.32l.014-.015c.094-.066.14-.172.14-.333-.04-.047-.046-.094-.08-.14-.04-.067-.126-.1-.18-.153zM5.77 18.695h-.927a50.854 50.854 0 00-.27-4.41h-.008l-1.41 4.41H2.45l-1.4-4.41h-.01a72.892 72.892 0 00-.195 4.41H0c.055-1.966.192-3.81.41-5.53h1.15l1.335 4.064h.008l1.347-4.064h1.095c.242 2.015.384 3.86.428 5.53zm4.017-4.08c-.378 2.045-.876 3.533-1.492 4.46-.482.716-1.01 1.073-1.583 1.073-.153 0-.34-.046-.566-.138v-.494c.11.017.24.026.386.026.268 0 .483-.075.647-.222.197-.18.295-.382.295-.605 0-.155-.077-.47-.23-.944L6.23 14.615h.91l.727 2.36c.164.536.233.91.205 1.123.4-1.064.678-2.227.835-3.483zm12.325 4.08h-2.63v-5.53h.885v4.85h1.745zm-3.32.135l-1.016-.5c.09-.076.177-.158.255-.25.433-.506.648-1.258.648-2.253 0-1.83-.718-2.746-2.155-2.746-.704 0-1.254.232-1.65.697-.43.508-.646 1.256-.646 2.245 0 .972.19 1.686.574 2.14.35.41.877.615 1.583.615.264 0 .506-.033.725-.098l1.325.772.36-.622zM15.5 17.588c-.225-.36-.337-.94-.337-1.736 0-1.393.424-2.09 1.27-2.09.443 0 .77.167.977.5.224.362.336.936.336 1.723 0 1.404-.424 2.108-1.27 2.108-.445 0-.77-.167-.978-.5zm-1.658-.425c0 .47-.172.856-.516 1.156-.344.3-.803.45-1.384.45-.543 0-1.064-.172-1.573-.515l.237-.476c.438.22.833.328 1.19.328.332 0 .593-.073.783-.22a.754.754 0 00.3-.615c0-.33-.23-.61-.648-.845-.388-.213-1.163-.657-1.163-.657-.422-.307-.632-.636-.632-1.177 0-.45.157-.81.47-1.085.315-.278.72-.415 1.22-.415.512 0 .98.136 1.4.41l-.213.476a2.726 2.726 0 00-1.064-.23c-.283 0-.502.068-.654.206a.685.685 0 00-.248.524c0 .328.234.61.666.85.393.215 1.187.67 1.187.67.433.305.648.63.648 1.168zm9.382-5.852c-.535-.014-.95.04-1.297.188-.1.04-.26.04-.274.167.055.053.063.14.11.214.08.134.218.313.346.407.14.11.28.216.427.31.26.16.555.255.81.416.145.094.293.213.44.313.073.05.12.14.214.172v-.02c-.046-.06-.06-.147-.105-.214-.067-.067-.134-.127-.2-.193a3.223 3.223 0 00-.695-.675c-.214-.146-.682-.35-.77-.595l-.013-.014c.146-.013.32-.066.46-.106.227-.06.435-.047.67-.106.106-.027.213-.06.32-.094v-.06c-.12-.12-.21-.283-.334-.395a8.867 8.867 0 00-1.104-.823c-.21-.134-.476-.22-.697-.334-.08-.04-.214-.06-.26-.127-.12-.146-.19-.34-.275-.514a17.69 17.69 0 01-.547-1.163c-.12-.262-.193-.523-.34-.763-.69-1.137-1.437-1.826-2.586-2.5-.247-.14-.543-.2-.856-.274-.167-.008-.334-.02-.5-.027-.11-.047-.216-.174-.31-.235-.38-.24-1.364-.76-1.644-.072-.18.434.267.862.422 1.082.115.153.26.328.34.5.047.116.06.235.107.356.106.294.207.622.347.897.073.14.153.287.247.413.054.073.146.107.167.227-.094.136-.1.334-.154.5-.24.757-.146 1.693.194 2.25.107.166.362.534.703.393.3-.12.234-.5.32-.835.02-.08.007-.133.048-.187v.015c.094.188.188.367.274.555.206.328.566.668.867.895.16.12.287.328.487.402v-.02h-.015c-.043-.058-.1-.086-.154-.133a3.445 3.445 0 01-.35-.4 8.76 8.76 0 01-.747-1.218c-.11-.21-.202-.436-.29-.643-.04-.08-.04-.2-.107-.24-.1.146-.247.273-.32.453-.127.288-.14.642-.188 1.01-.027.007-.014 0-.027.014-.214-.052-.287-.274-.367-.46-.2-.475-.233-1.238-.06-1.785.047-.14.247-.582.167-.716-.042-.127-.174-.2-.247-.303a2.478 2.478 0 01-.24-.427c-.16-.374-.24-.788-.414-1.162-.08-.173-.22-.354-.334-.513-.127-.18-.267-.307-.368-.52-.033-.073-.08-.194-.027-.274.014-.054.042-.075.094-.09.088-.072.335.022.422.062.247.1.455.194.662.334.094.066.195.193.315.226h.14c.214.047.455.014.655.073.355.114.675.28.962.46a5.953 5.953 0 012.085 2.286c.08.154.115.295.188.455.14.33.313.663.455.982.14.315.275.636.476.897.1.14.502.213.682.286.133.06.34.115.46.188.23.14.454.3.67.454.11.076.443.243.463.378z" fill="#4479A1"/></g>
    <text x="2194.0" y="73" text-anchor="middle" font-family="Fira Code, monospace" font-size="11" font-weight="600" fill="#4ade80">MySQL</text>
  </g>
  <g>
    <rect x="2272" y="0" width="128" height="86" rx="13" fill="#4ade80" fill-opacity="0.09" stroke="#4ade80" stroke-opacity="0.4" stroke-width="1"/>
    <g transform="translate(2317.0,12.0) scale(1.5833)"><path d="M21.333 10H24v4h-2.667ZM16 1.335h2.667v21.33H16Zm-5.333 0h2.666v21.33h-2.666ZM0 22.665V1.335h2.667v21.33zm5.333-21.33H8v21.33H5.333Z" fill="#FFCC01"/></g>
    <text x="2336.0" y="73" text-anchor="middle" font-family="Fira Code, monospace" font-size="11" font-weight="600" fill="#4ade80">ClickHouse</text>
  </g>
  <g>
    <rect x="2414" y="0" width="128" height="86" rx="13" fill="#4ade80" fill-opacity="0.09" stroke="#4ade80" stroke-opacity="0.4" stroke-width="1"/>
    <g transform="translate(2459.0,12.0) scale(1.5833)"><path d="M13.983 11.078h2.119a.186.186 0 00.186-.185V9.006a.186.186 0 00-.186-.186h-2.119a.185.185 0 00-.185.185v1.888c0 .102.083.185.185.185m-2.954-5.43h2.118a.186.186 0 00.186-.186V3.574a.186.186 0 00-.186-.185h-2.118a.185.185 0 00-.185.185v1.888c0 .102.082.185.185.185m0 2.716h2.118a.187.187 0 00.186-.186V6.29a.186.186 0 00-.186-.185h-2.118a.185.185 0 00-.185.185v1.887c0 .102.082.185.185.186m-2.93 0h2.12a.186.186 0 00.184-.186V6.29a.185.185 0 00-.185-.185H8.1a.185.185 0 00-.185.185v1.887c0 .102.083.185.185.186m-2.964 0h2.119a.186.186 0 00.185-.186V6.29a.185.185 0 00-.185-.185H5.136a.186.186 0 00-.186.185v1.887c0 .102.084.185.186.186m5.893 2.715h2.118a.186.186 0 00.186-.185V9.006a.186.186 0 00-.186-.186h-2.118a.185.185 0 00-.185.185v1.888c0 .102.082.185.185.185m-2.93 0h2.12a.185.185 0 00.184-.185V9.006a.185.185 0 00-.184-.186h-2.12a.185.185 0 00-.184.185v1.888c0 .102.083.185.185.185m-2.964 0h2.119a.185.185 0 00.185-.185V9.006a.185.185 0 00-.184-.186h-2.12a.186.186 0 00-.186.186v1.887c0 .102.084.185.186.185m-2.92 0h2.12a.185.185 0 00.184-.185V9.006a.185.185 0 00-.184-.186h-2.12a.185.185 0 00-.184.185v1.888c0 .102.082.185.185.185M23.763 9.89c-.065-.051-.672-.51-1.954-.51-.338.001-.676.03-1.01.087-.248-1.7-1.653-2.53-1.716-2.566l-.344-.199-.226.327c-.284.438-.49.922-.612 1.43-.23.97-.09 1.882.403 2.661-.595.332-1.55.413-1.744.42H.751a.751.751 0 00-.75.748 11.376 11.376 0 00.692 4.062c.545 1.428 1.355 2.48 2.41 3.124 1.18.723 3.1 1.137 5.275 1.137.983.003 1.963-.086 2.93-.266a12.248 12.248 0 003.823-1.389c.98-.567 1.86-1.288 2.61-2.136 1.252-1.418 1.998-2.997 2.553-4.4h.221c1.372 0 2.215-.549 2.68-1.009.309-.293.55-.65.707-1.046l.098-.288Z" fill="#2496ED"/></g>
    <text x="2478.0" y="73" text-anchor="middle" font-family="Fira Code, monospace" font-size="11" font-weight="600" fill="#4ade80">Docker</text>
  </g>
  <g>
    <rect x="2556" y="0" width="128" height="86" rx="13" fill="#4ade80" fill-opacity="0.09" stroke="#4ade80" stroke-opacity="0.4" stroke-width="1"/>
    <g transform="translate(2601.0,12.0) scale(1.5833)"><path d="M10.204 14.35l.007.01-.999 2.413a5.171 5.171 0 0 1-2.075-2.597l2.578-.437.004.005a.44.44 0 0 1 .484.606zm-.833-2.129a.44.44 0 0 0 .173-.756l.002-.011L7.585 9.7a5.143 5.143 0 0 0-.73 3.255l2.514-.725.002-.009zm1.145-1.98a.44.44 0 0 0 .699-.337l.01-.005.15-2.62a5.144 5.144 0 0 0-3.01 1.442l2.147 1.523.004-.002zm.76 2.75l.723.349.722-.347.18-.78-.5-.623h-.804l-.5.623.179.779zm1.5-3.095a.44.44 0 0 0 .7.336l.008.003 2.134-1.513a5.188 5.188 0 0 0-2.992-1.442l.148 2.615.002.001zm10.876 5.97l-5.773 7.181a1.6 1.6 0 0 1-1.248.594l-9.261.003a1.6 1.6 0 0 1-1.247-.596l-5.776-7.18a1.583 1.583 0 0 1-.307-1.34L2.1 5.573c.108-.47.425-.864.863-1.073L11.305.513a1.606 1.606 0 0 1 1.385 0l8.345 3.985c.438.209.755.604.863 1.073l2.062 8.955c.108.47-.005.963-.308 1.34zm-3.289-2.057c-.042-.01-.103-.026-.145-.034-.174-.033-.315-.025-.479-.038-.35-.037-.638-.067-.895-.148-.105-.04-.18-.165-.216-.216l-.201-.059a6.45 6.45 0 0 0-.105-2.332 6.465 6.465 0 0 0-.936-2.163c.052-.047.15-.133.177-.159.008-.09.001-.183.094-.282.197-.185.444-.338.743-.522.142-.084.273-.137.415-.242.032-.024.076-.062.11-.089.24-.191.295-.52.123-.736-.172-.216-.506-.236-.745-.045-.034.027-.08.062-.111.088-.134.116-.217.23-.33.35-.246.25-.45.458-.673.609-.097.056-.239.037-.303.033l-.19.135a6.545 6.545 0 0 0-4.146-2.003l-.012-.223c-.065-.062-.143-.115-.163-.25-.022-.268.015-.557.057-.905.023-.163.061-.298.068-.475.001-.04-.001-.099-.001-.142 0-.306-.224-.555-.5-.555-.275 0-.499.249-.499.555l.001.014c0 .041-.002.092 0 .128.006.177.044.312.067.475.042.348.078.637.056.906a.545.545 0 0 1-.162.258l-.012.211a6.424 6.424 0 0 0-4.166 2.003 8.373 8.373 0 0 1-.18-.128c-.09.012-.18.04-.297-.029-.223-.15-.427-.358-.673-.608-.113-.12-.195-.234-.329-.349-.03-.026-.077-.062-.111-.088a.594.594 0 0 0-.348-.132.481.481 0 0 0-.398.176c-.172.216-.117.546.123.737l.007.005.104.083c.142.105.272.159.414.242.299.185.546.338.743.522.076.082.09.226.1.288l.16.143a6.462 6.462 0 0 0-1.02 4.506l-.208.06c-.055.072-.133.184-.215.217-.257.081-.546.11-.895.147-.164.014-.305.006-.48.039-.037.007-.09.02-.133.03l-.004.002-.007.002c-.295.071-.484.342-.423.608.061.267.349.429.645.365l.007-.001.01-.003.129-.029c.17-.046.294-.113.448-.172.33-.118.604-.217.87-.256.112-.009.23.069.288.101l.217-.037a6.5 6.5 0 0 0 2.88 3.596l-.09.218c.033.084.069.199.044.282-.097.252-.263.517-.452.813-.091.136-.185.242-.268.399-.02.037-.045.095-.064.134-.128.275-.034.591.213.71.248.12.556-.007.69-.282v-.002c.02-.039.046-.09.062-.127.07-.162.094-.301.144-.458.132-.332.205-.68.387-.897.05-.06.13-.082.215-.105l.113-.205a6.453 6.453 0 0 0 4.609.012l.106.192c.086.028.18.042.256.155.136.232.229.507.342.84.05.156.074.295.145.457.016.037.043.09.062.129.133.276.442.402.69.282.247-.118.341-.435.213-.71-.02-.039-.045-.096-.065-.134-.083-.156-.177-.261-.268-.398-.19-.296-.346-.541-.443-.793-.04-.13.007-.21.038-.294-.018-.022-.059-.144-.083-.202a6.499 6.499 0 0 0 2.88-3.622c.064.01.176.03.213.038.075-.05.144-.114.28-.104.266.039.54.138.87.256.154.06.277.128.448.173.036.01.088.019.13.028l.009.003.007.001c.297.064.584-.098.645-.365.06-.266-.128-.537-.423-.608zM16.4 9.701l-1.95 1.746v.005a.44.44 0 0 0 .173.757l.003.01 2.526.728a5.199 5.199 0 0 0-.108-1.674A5.208 5.208 0 0 0 16.4 9.7zm-4.013 5.325a.437.437 0 0 0-.404-.232.44.44 0 0 0-.372.233h-.002l-1.268 2.292a5.164 5.164 0 0 0 3.326.003l-1.27-2.296h-.01zm1.888-1.293a.44.44 0 0 0-.27.036.44.44 0 0 0-.214.572l-.003.004 1.01 2.438a5.15 5.15 0 0 0 2.081-2.615l-2.6-.44-.004.005z" fill="#326CE5"/></g>
    <text x="2620.0" y="73" text-anchor="middle" font-family="Fira Code, monospace" font-size="11" font-weight="600" fill="#4ade80">Kubernetes</text>
  </g>
  <g>
    <rect x="2698" y="0" width="128" height="86" rx="13" fill="#4ade80" fill-opacity="0.09" stroke="#4ade80" stroke-opacity="0.4" stroke-width="1"/>
    <path d="M 2750.0 35.0 a 7 7 0 0 1 2 -13.7 a 9 9 0 0 1 17 3.3 a 6 6 0 0 1 -1 13.4 Z" fill="none" stroke="#4ade80" stroke-width="2.2" stroke-linejoin="round"/>
    <text x="2762.0" y="73" text-anchor="middle" font-family="Fira Code, monospace" font-size="11" font-weight="600" fill="#4ade80">AWS</text>
  </g>
  <g>
    <rect x="2840" y="0" width="128" height="86" rx="13" fill="#4ade80" fill-opacity="0.09" stroke="#4ade80" stroke-opacity="0.4" stroke-width="1"/>
    <g transform="translate(2885.0,12.0) scale(1.5833)"><path d="M23.546 10.93L13.067.452c-.604-.603-1.582-.603-2.188 0L8.708 2.627l2.76 2.76c.645-.215 1.379-.07 1.889.441.516.515.658 1.258.438 1.9l2.658 2.66c.645-.223 1.387-.078 1.9.435.721.72.721 1.884 0 2.604-.719.719-1.881.719-2.6 0-.539-.541-.674-1.337-.404-1.996L12.86 8.955v6.525c.176.086.342.203.488.348.713.721.713 1.883 0 2.6-.719.721-1.889.721-2.609 0-.719-.719-.719-1.879 0-2.598.182-.18.387-.316.605-.406V8.835c-.217-.091-.424-.222-.6-.401-.545-.545-.676-1.342-.396-2.009L7.636 3.7.45 10.881c-.6.605-.6 1.584 0 2.189l10.48 10.477c.604.604 1.582.604 2.186 0l10.43-10.43c.605-.603.605-1.582 0-2.187" fill="#F05032"/></g>
    <text x="2904.0" y="73" text-anchor="middle" font-family="Fira Code, monospace" font-size="11" font-weight="600" fill="#4ade80">Git</text>
  </g>
  <g>
    <rect x="2982" y="0" width="128" height="86" rx="13" fill="#facc15" fill-opacity="0.09" stroke="#facc15" stroke-opacity="0.4" stroke-width="1"/>
    <g transform="translate(3027.0,12.0) scale(1.5833)"><path d="M14.23 12.004a2.236 2.236 0 0 1-2.235 2.236 2.236 2.236 0 0 1-2.236-2.236 2.236 2.236 0 0 1 2.235-2.236 2.236 2.236 0 0 1 2.236 2.236zm2.648-10.69c-1.346 0-3.107.96-4.888 2.622-1.78-1.653-3.542-2.602-4.887-2.602-.41 0-.783.093-1.106.278-1.375.793-1.683 3.264-.973 6.365C1.98 8.917 0 10.42 0 12.004c0 1.59 1.99 3.097 5.043 4.03-.704 3.113-.39 5.588.988 6.38.32.187.69.275 1.102.275 1.345 0 3.107-.96 4.888-2.624 1.78 1.654 3.542 2.603 4.887 2.603.41 0 .783-.09 1.106-.275 1.374-.792 1.683-3.263.973-6.365C22.02 15.096 24 13.59 24 12.004c0-1.59-1.99-3.097-5.043-4.032.704-3.11.39-5.587-.988-6.38-.318-.184-.688-.277-1.092-.278zm-.005 1.09v.006c.225 0 .406.044.558.127.666.382.955 1.835.73 3.704-.054.46-.142.945-.25 1.44-.96-.236-2.006-.417-3.107-.534-.66-.905-1.345-1.727-2.035-2.447 1.592-1.48 3.087-2.292 4.105-2.295zm-9.77.02c1.012 0 2.514.808 4.11 2.28-.686.72-1.37 1.537-2.02 2.442-1.107.117-2.154.298-3.113.538-.112-.49-.195-.964-.254-1.42-.23-1.868.054-3.32.714-3.707.19-.09.4-.127.563-.132zm4.882 3.05c.455.468.91.992 1.36 1.564-.44-.02-.89-.034-1.345-.034-.46 0-.915.01-1.36.034.44-.572.895-1.096 1.345-1.565zM12 8.1c.74 0 1.477.034 2.202.093.406.582.802 1.203 1.183 1.86.372.64.71 1.29 1.018 1.946-.308.655-.646 1.31-1.013 1.95-.38.66-.773 1.288-1.18 1.87-.728.063-1.466.098-2.21.098-.74 0-1.477-.035-2.202-.093-.406-.582-.802-1.204-1.183-1.86-.372-.64-.71-1.29-1.018-1.946.303-.657.646-1.313 1.013-1.954.38-.66.773-1.286 1.18-1.868.728-.064 1.466-.098 2.21-.098zm-3.635.254c-.24.377-.48.763-.704 1.16-.225.39-.435.782-.635 1.174-.265-.656-.49-1.31-.676-1.947.64-.15 1.315-.283 2.015-.386zm7.26 0c.695.103 1.365.23 2.006.387-.18.632-.405 1.282-.66 1.933-.2-.39-.41-.783-.64-1.174-.225-.392-.465-.774-.705-1.146zm3.063.675c.484.15.944.317 1.375.498 1.732.74 2.852 1.708 2.852 2.476-.005.768-1.125 1.74-2.857 2.475-.42.18-.88.342-1.355.493-.28-.958-.646-1.956-1.1-2.98.45-1.017.81-2.01 1.085-2.964zm-13.395.004c.278.96.645 1.957 1.1 2.98-.45 1.017-.812 2.01-1.086 2.964-.484-.15-.944-.318-1.37-.5-1.732-.737-2.852-1.706-2.852-2.474 0-.768 1.12-1.742 2.852-2.476.42-.18.88-.342 1.356-.494zm11.678 4.28c.265.657.49 1.312.676 1.948-.64.157-1.316.29-2.016.39.24-.375.48-.762.705-1.158.225-.39.435-.788.636-1.18zm-9.945.02c.2.392.41.783.64 1.175.23.39.465.772.705 1.143-.695-.102-1.365-.23-2.006-.386.18-.63.406-1.282.66-1.933zM17.92 16.32c.112.493.2.968.254 1.423.23 1.868-.054 3.32-.714 3.708-.147.09-.338.128-.563.128-1.012 0-2.514-.807-4.11-2.28.686-.72 1.37-1.536 2.02-2.44 1.107-.118 2.154-.3 3.113-.54zm-11.83.01c.96.234 2.006.415 3.107.532.66.905 1.345 1.727 2.035 2.446-1.595 1.483-3.092 2.295-4.11 2.295-.22-.005-.406-.05-.553-.132-.666-.38-.955-1.834-.73-3.703.054-.46.142-.944.25-1.438zm4.56.64c.44.02.89.034 1.345.034.46 0 .915-.01 1.36-.034-.44.572-.895 1.095-1.345 1.565-.455-.47-.91-.993-1.36-1.565z" fill="#61DAFB"/></g>
    <text x="3046.0" y="73" text-anchor="middle" font-family="Fira Code, monospace" font-size="11" font-weight="600" fill="#facc15">React</text>
  </g>
  <g>
    <rect x="3124" y="0" width="128" height="86" rx="13" fill="#facc15" fill-opacity="0.09" stroke="#facc15" stroke-opacity="0.4" stroke-width="1"/>
    <g transform="translate(3169.0,12.0) scale(1.5833)"><path d="M11.5725 0c-.1763 0-.3098.0013-.3584.0067-.0516.0053-.2159.021-.3636.0328-3.4088.3073-6.6017 2.1463-8.624 4.9728C1.1004 6.584.3802 8.3666.1082 10.255c-.0962.659-.108.8537-.108 1.7474s.012 1.0884.108 1.7476c.652 4.506 3.8591 8.2919 8.2087 9.6945.7789.2511 1.6.4223 2.5337.5255.3636.04 1.9354.04 2.299 0 1.6117-.1783 2.9772-.577 4.3237-1.2643.2065-.1056.2464-.1337.2183-.1573-.0188-.0139-.8987-1.1938-1.9543-2.62l-1.919-2.592-2.4047-3.5583c-1.3231-1.9564-2.4117-3.556-2.4211-3.556-.0094-.0026-.0187 1.5787-.0235 3.509-.0067 3.3802-.0093 3.5162-.0516 3.596-.061.115-.108.1618-.2064.2134-.075.0374-.1408.0445-.495.0445h-.406l-.1078-.068a.4383.4383 0 01-.1572-.1712l-.0493-.1056.0053-4.703.0067-4.7054.0726-.0915c.0376-.0493.1174-.1125.1736-.143.0962-.047.1338-.0517.5396-.0517.4787 0 .5584.0187.6827.1547.0353.0377 1.3373 1.9987 2.895 4.3608a10760.433 10760.433 0 004.7344 7.1706l1.9002 2.8782.096-.0633c.8518-.5536 1.7525-1.3418 2.4657-2.1627 1.5179-1.7429 2.4963-3.868 2.8247-6.134.0961-.6591.1078-.854.1078-1.7475 0-.8937-.012-1.0884-.1078-1.7476-.6522-4.506-3.8592-8.2919-8.2087-9.6945-.7672-.2487-1.5836-.42-2.4985-.5232-.169-.0176-1.0835-.0366-1.6123-.037zm4.0685 7.217c.3473 0 .4082.0053.4857.047.1127.0562.204.1642.237.2767.0186.061.0234 1.3653.0186 4.3044l-.0067 4.2175-.7436-1.14-.7461-1.14v-3.066c0-1.982.0093-3.0963.0234-3.1502.0375-.1313.1196-.2346.2323-.2955.0961-.0494.1313-.054.4997-.054z" fill="#ffffff"/></g>
    <text x="3188.0" y="73" text-anchor="middle" font-family="Fira Code, monospace" font-size="11" font-weight="600" fill="#facc15">Next.js</text>
  </g>
  <g>
    <rect x="3266" y="0" width="128" height="86" rx="13" fill="#facc15" fill-opacity="0.09" stroke="#facc15" stroke-opacity="0.4" stroke-width="1"/>
    <rect x="3318.0" y="33.0" width="6" height="6" rx="1.5" fill="#facc15"/><rect x="3327.0" y="27.0" width="6" height="12" rx="1.5" fill="#facc15"/><rect x="3336.0" y="23.0" width="6" height="16" rx="1.5" fill="#facc15"/>
    <text x="3330.0" y="73" text-anchor="middle" font-family="Fira Code, monospace" font-size="11" font-weight="600" fill="#facc15">Power BI</text>
  </g>
  <g>
    <rect x="3408" y="0" width="128" height="86" rx="13" fill="#facc15" fill-opacity="0.09" stroke="#facc15" stroke-opacity="0.4" stroke-width="1"/>
    <polyline points="3460.0,37.0 3467.0,23.0 3474.0,33.0 3483.0,21.0" fill="none" stroke="#facc15" stroke-width="2.2" stroke-linecap="round" stroke-linejoin="round"/><circle cx="3467.0" cy="23.0" r="1.8" fill="#facc15"/><circle cx="3483.0" cy="21.0" r="1.8" fill="#facc15"/>
    <text x="3472.0" y="73" text-anchor="middle" font-family="Fira Code, monospace" font-size="11" font-weight="600" fill="#facc15">Matplotlib</text>
  </g>
  <g>
    <rect x="3550" y="0" width="128" height="86" rx="13" fill="#facc15" fill-opacity="0.09" stroke="#facc15" stroke-opacity="0.4" stroke-width="1"/>
    <path d="M 3602.0 39.0 Q 3608.0 19.0 3614.0 31.0 T 3626.0 23.0" fill="none" stroke="#facc15" stroke-width="2.3" stroke-linecap="round"/>
    <text x="3614.0" y="73" text-anchor="middle" font-family="Fira Code, monospace" font-size="11" font-weight="600" fill="#facc15">Seaborn</text>
  </g>
    </g>
  </g>
</svg>